# Blender v2.82 (sub 7) OBJ File: 'GameScene.blend'
# www.blender.org
v 0.577310 0.000000 0.064652
v 0.600000 0.000000 0.041962
v 0.577310 2.000000 0.064652
v 0.600000 2.000000 0.041962
v -0.600000 0.000000 0.041962
v -0.577310 0.000000 0.064652
v -0.600000 2.000000 0.041962
v -0.577310 2.000000 0.064652
v -0.500000 2.077310 0.064652
v -0.500000 2.100000 0.041962
v 0.500000 2.100000 0.041962
v 0.500000 2.077310 0.064652
v 0.600000 2.100000 0.041962
v 0.577310 2.077310 0.064652
v -0.577310 2.077310 0.064652
v -0.600000 2.100000 0.041962
v -0.514002 0.000000 0.064652
v -0.500000 0.000000 0.050650
v 0.500000 0.000000 0.050650
v 0.514002 0.000000 0.064652
v -0.500000 2.000000 0.050650
v -0.514002 2.014002 0.064652
v 0.514002 2.014002 0.064652
v 0.500000 2.000000 0.050650
v 0.577310 0.000000 -0.580740
v 0.600000 0.000000 -0.558049
v 0.577310 2.000000 -0.580740
v 0.600000 2.000000 -0.558049
v -0.600000 0.000000 -0.558049
v -0.577310 0.000000 -0.580740
v -0.600000 2.000000 -0.558049
v -0.577310 2.000000 -0.580740
v -0.500000 2.077310 -0.580740
v -0.500000 2.100000 -0.558049
v 0.500000 2.100000 -0.558049
v 0.500000 2.077310 -0.580740
v 0.600000 2.100000 -0.558049
v 0.577310 2.077310 -0.580740
v -0.577310 2.077310 -0.580740
v -0.600000 2.100000 -0.558049
v -0.514002 0.000000 -0.580740
v -0.500000 0.000000 -0.566737
v 0.500000 0.000000 -0.566737
v 0.514002 0.000000 -0.580740
v -0.500000 2.000000 -0.566737
v -0.514002 2.014002 -0.580740
v 0.514002 2.014002 -0.580740
v 0.500000 2.000000 -0.566737
vt 0.059531 0.000000
vt 0.025485 0.909091
vt 0.059531 0.915456
vt 0.067061 0.944232
vt 0.612382 0.915456
vt 0.646428 0.944232
vt 0.646428 0.909091
vt 0.025485 0.944232
vt 0.955559 0.545455
vt 0.955559 1.000000
vt 0.955559 0.545455
vt 0.783271 0.045455
vt 0.783271 0.954546
vt 0.783271 0.954546
vt 0.824630 0.909091
vt 0.824630 0.954546
vt 0.824630 0.954546
vt 0.991948 0.045455
vt 0.991948 0.000000
vt 0.991948 0.000000
vt 0.991948 0.545455
vt 0.991948 0.500000
vt 0.991948 0.500000
vt 0.991948 0.045455
vt 0.013282 0.000000
vt 0.013282 0.909091
vt 0.646428 0.000000
vt 0.658631 0.909091
vt 0.658630 0.000000
vt 1.000000 0.500000
vt 1.000000 0.010314
vt 1.000000 0.535141
vt 0.991948 0.545455
vt 0.658631 0.954546
vt 0.013282 0.954546
vt 0.824630 0.000000
vt 0.824630 0.909091
vt 0.604852 0.909091
vt 0.067061 0.909091
vt 0.612382 0.000000
vt 0.604852 0.944232
vt 0.059531 0.000000
vt 0.025485 0.909091
vt 0.025485 0.000000
vt 0.612382 0.915456
vt 0.067061 0.944232
vt 0.059531 0.915456
vt 0.646428 0.909091
vt 0.646428 0.944232
vt 0.025485 0.944232
vt 0.913258 0.000000
vt 0.913258 0.909091
vt 0.913258 0.000000
vt 0.870957 0.909091
vt 0.870957 0.000000
vt 0.870957 0.909091
vt 0.013282 0.000000
vt 0.013282 0.909091
vt 0.658631 0.909091
vt 0.646428 0.000000
vt 0.658630 0.000000
vt 1.000000 0.500000
vt 1.000000 0.010314
vt 1.000000 0.045455
vt 1.000000 0.535141
vt 0.013282 0.954546
vt 0.604852 0.909091
vt 0.067061 0.909091
vt 0.612382 0.000000
vt 0.604851 0.000000
vt 0.604852 0.944232
vt 0.783271 0.000000
vt 0.783271 0.045455
vt 0.025485 0.000000
vt 0.955559 1.000000
vt 1.000000 0.045455
vt 0.824630 0.000000
vt 0.067061 0.000000
vt 0.604851 0.000000
vt 0.913258 0.909091
vt 0.870957 0.000000
vt 0.658631 0.954546
vt 0.067061 0.000000
vt 0.783271 0.000000
vn -0.3827 0.0000 0.9239
vn 0.3827 0.0000 0.9239
vn -0.2175 0.0000 0.9761
vn 0.0000 0.3827 0.9239
vn 0.0000 -0.2175 0.9761
vn 0.2175 0.0000 0.9761
vn -0.5526 0.0000 0.8334
vn 0.0000 0.5526 0.8334
vn 0.0000 -0.8959 0.4444
vn 0.0000 -0.8959 -0.4444
vn 0.9239 0.0000 -0.3827
vn 0.9239 0.0000 0.3827
vn -0.9239 0.0000 -0.3827
vn -0.9576 0.0000 0.2880
vn -0.9576 0.0000 -0.2880
vn 0.0000 0.9239 -0.3827
vn 0.0000 0.9576 0.2880
vn 0.0000 0.9576 -0.2880
vn 0.0000 0.9239 0.3827
vn -0.9239 0.0000 0.3827
vn 0.5526 0.0000 0.8334
vn 0.9576 0.0000 0.2880
vn 0.0000 -0.8958 0.4444
vn -0.8959 0.0000 0.4444
vn 0.8959 0.0000 0.4444
vn -0.3827 0.0000 -0.9239
vn 0.3827 0.0000 -0.9239
vn 0.0000 -0.2175 -0.9761
vn 0.0000 0.3827 -0.9239
vn 0.2175 0.0000 -0.9761
vn -0.5526 0.0000 -0.8334
vn 0.0000 0.5526 -0.8334
vn -0.8959 0.0000 -0.4444
vn 0.5526 0.0000 -0.8334
vn 0.9576 0.0000 -0.2880
vn -0.2175 0.0000 -0.9761
vn 0.8959 0.0000 -0.4444
s 1
f 20/1/1 3/2/2 23/3/3
f 12/4/4 22/5/5 23/3/5
f 22/5/6 15/6/7 8/7/1
f 23/3/5 14/8/8 12/4/4
f 24/9/9 45/10/10 48/11/10
f 28/12/11 2/13/12 26/14/11
f 31/15/13 16/16/14 40/17/15
f 35/18/16 13/19/17 37/20/18
f 40/21/18 10/22/19 34/23/16
f 34/23/16 11/24/19 35/18/16
f 3/2/2 2/25/12 4/26/12
f 6/27/1 7/28/20 5/29/20
f 9/30/4 11/24/19 10/22/19
f 11/24/19 14/31/8 13/19/17
f 15/32/8 10/22/19 16/33/17
f 7/28/20 15/6/7 16/34/14
f 14/8/21 4/26/12 13/35/22
f 29/36/13 7/37/20 31/15/13
f 21/38/23 23/3/5 22/5/5
f 24/39/24 20/1/1 23/3/3
f 17/40/2 21/38/25 22/5/6
f 8/7/1 17/40/2 22/5/6
f 9/41/4 15/6/8 22/5/5
f 3/2/2 14/8/21 23/3/3
f 44/42/26 27/43/27 25/44/27
f 46/45/28 36/46/29 47/47/28
f 46/45/30 32/48/26 39/49/31
f 47/47/28 36/46/29 38/50/32
f 19/51/20 48/52/33 43/53/13
f 42/54/11 21/55/25 18/56/12
f 26/57/11 27/43/27 28/58/11
f 31/59/13 30/60/26 29/61/13
f 35/18/16 33/62/29 34/23/16
f 35/18/16 38/63/32 36/64/29
f 34/23/16 39/65/32 40/21/18
f 31/59/13 39/49/31 32/48/26
f 28/58/11 38/50/34 37/66/35
f 47/47/28 45/67/10 46/45/28
f 44/42/26 48/68/33 47/47/36
f 41/69/27 45/67/37 42/70/11
f 41/69/27 32/48/26 46/45/30
f 33/71/29 46/45/28 39/49/32
f 27/43/27 47/47/36 38/50/34
f 37/72/35 4/73/12 28/12/11
f 20/1/1 1/74/2 3/2/2
f 12/4/4 9/41/4 22/5/5
f 24/9/9 21/75/23 45/10/10
f 28/12/11 4/73/12 2/13/12
f 31/15/13 7/37/20 16/16/14
f 35/18/16 11/24/19 13/19/17
f 40/21/18 16/33/17 10/22/19
f 34/23/16 10/22/19 11/24/19
f 3/2/2 1/74/2 2/25/12
f 6/27/1 8/7/1 7/28/20
f 9/30/4 12/76/4 11/24/19
f 11/24/19 12/76/4 14/31/8
f 15/32/8 9/30/4 10/22/19
f 7/28/20 8/7/1 15/6/7
f 14/8/21 3/2/2 4/26/12
f 29/36/13 5/77/20 7/37/20
f 21/38/23 24/39/9 23/3/5
f 24/39/24 19/78/20 20/1/1
f 17/40/2 18/79/12 21/38/25
f 8/7/1 6/27/1 17/40/2
f 44/42/26 47/47/36 27/43/27
f 46/45/28 33/71/29 36/46/29
f 19/51/20 24/80/24 48/52/33
f 42/54/11 45/81/37 21/55/25
f 26/57/11 25/44/27 27/43/27
f 31/59/13 32/48/26 30/60/26
f 35/18/16 36/64/29 33/62/29
f 35/18/16 37/20/18 38/63/32
f 34/23/16 33/62/29 39/65/32
f 31/59/13 40/82/15 39/49/31
f 28/58/11 27/43/27 38/50/34
f 47/47/28 48/68/10 45/67/10
f 44/42/26 43/83/13 48/68/33
f 41/69/27 46/45/30 45/67/37
f 41/69/27 30/60/26 32/48/26
f 37/72/35 13/84/22 4/73/12
