# Blender v2.82 (sub 7) OBJ File: 'GameScene.blend'
# www.blender.org
v 0.500000 1.000000 0.000000
v 0.500000 -1.000000 0.000000
v -0.500000 1.000000 0.000000
v -0.500000 -1.000000 0.000000
v 0.475000 0.950000 -0.100000
v 0.475000 -0.950000 -0.100000
v -0.475000 0.950000 -0.100000
v -0.475000 -0.950000 -0.100000
vt 0.495316 0.000166
vt 0.694714 0.000000
vt 0.495316 0.000166
vt 0.695488 0.400509
vt 0.495316 0.400509
vt 0.495316 0.400509
vt 0.694714 0.000000
vt 0.695488 0.400509
vn 0.0000 0.8944 0.4472
vn 0.0000 -0.8944 0.4472
vn 0.9701 0.0000 0.2425
vn -0.9701 0.0000 0.2425
vn -0.0000 0.0000 1.0000
s off
f 6/1/1 4/2/1 2/3/1
f 3/4/2 5/5/2 1/6/2
f 8/7/3 3/4/3 4/2/3
f 5/5/4 2/3/4 1/6/4
f 7/8/5 6/1/5 5/5/5
f 6/1/1 8/7/1 4/2/1
f 3/4/2 7/8/2 5/5/2
f 8/7/3 7/8/3 3/4/3
f 5/5/4 6/1/4 2/3/4
f 7/8/5 8/7/5 6/1/5
