# Blender v2.82 (sub 7) OBJ File: 'GameScene.blend'
# www.blender.org
v -4.000000 2.500000 2.000000
v 4.000000 2.500000 2.000000
v -4.000000 5.500000 -1.000000
v 4.000000 5.500000 -1.000000
v -4.000000 5.500000 -6.000000
v 4.000000 5.500000 -6.000000
v -9.930909 2.300000 -2.184890
v 8.879006 2.300000 -2.184890
v -9.930909 2.300000 -12.561319
v 8.879006 2.300000 -12.561319
vt -0.460721 0.029553
vt 2.145303 -1.591149
vt -0.469490 -1.591148
vt -0.460721 1.663799
vt 2.154072 0.029553
vt -3.294149 3.434692
vt 4.987501 -1.741340
vt -3.294150 -1.741340
vt 2.154072 1.663799
vt 4.987501 3.434692
vn 0.0000 -0.7071 -0.7071
vn 0.0000 -1.0000 0.0000
s off
f 3/1/1 2/2/1 1/3/1
f 5/4/2 4/5/2 3/1/2
f 9/6/2 8/7/2 7/8/2
f 3/1/1 4/5/1 2/2/1
f 5/4/2 6/9/2 4/5/2
f 9/6/2 10/10/2 8/7/2
