# Blender v2.81 (sub 16) OBJ File: ''
# www.blender.org
o Cube.001
v -0.517157 0.000000 -0.800000
v 0.800000 0.100000 0.517157
v 0.800000 -0.000000 0.517157
v -0.800000 -0.000000 0.800000
v 0.517157 0.100000 0.800000
v 0.517157 -0.000000 0.800000
v 1.000000 1.800000 -0.517157
v 0.900000 0.482843 0.800000
v 1.000000 0.482843 0.800000
v -0.800000 2.000000 0.800000
v -0.800000 1.900000 -0.517157
v -0.800000 2.000000 -0.517157
v -0.517157 2.000000 -0.800000
v 0.800000 1.900000 -0.800000
v 0.800000 2.000000 -0.800000
v 1.000000 0.200000 -0.800000
v 0.900000 0.200000 0.517157
v 1.000000 0.200000 0.517157
v 1.000000 1.800000 0.800001
v 0.900000 1.800000 -0.517157
v 0.800000 2.000000 0.517158
v 1.000000 2.000000 -0.999999
v -1.000000 2.000000 -1.000000
v 0.900000 1.800000 0.800001
v 0.999999 2.000000 1.000001
v 1.000000 0.000000 -1.000000
v 1.000000 -0.000000 1.000000
v 0.800000 0.000000 -0.800000
v 0.900000 1.517157 -0.799999
v 0.900000 0.200000 -0.800000
v 1.000000 2.000000 -0.999999
v -1.000000 0.000000 -1.000000
v 0.999999 2.000000 1.000001
v -1.000000 -0.000000 1.000000
v -0.800000 0.000000 -0.517158
v 0.517157 2.000000 0.800000
v -1.000000 2.000000 1.000000
v 1.000000 -0.000000 1.000000
v 1.000000 1.517157 -0.799999
v 1.000000 0.000000 -1.000000
v -0.517157 0.100000 -0.800000
v 0.800000 0.100000 -0.800000
v -0.517157 1.900000 -0.800000
v 0.800000 1.900000 0.517158
v -0.800000 0.100000 0.800000
v -0.800000 0.100000 -0.517158
v -0.800000 1.900000 0.800000
v 0.517157 1.900000 0.800000
v -1.000000 1.517157 -0.800000
v -0.900000 0.200000 0.517157
v -1.000000 0.200000 0.517157
v -1.000000 0.200000 -0.800000
v -0.900000 1.517157 -0.800000
v -1.000000 0.482843 0.800000
v -0.900000 1.800000 0.800000
v -0.900000 0.482843 0.800000
v -1.000000 2.000000 1.000000
v -1.000000 1.800000 0.800000
v -1.000000 1.800000 -0.517157
v -1.000000 2.000000 -1.000000
v -1.000000 -0.000000 1.000000
v -1.000000 0.000000 -1.000000
v -0.900000 0.200000 -0.800000
v -0.900000 1.800000 -0.517157
v 0.517157 1.800000 1.000000
v -0.800000 0.482843 0.900000
v -0.800000 0.482843 1.000000
v -0.800000 1.800000 0.900000
v -0.800000 1.800000 1.000000
v -0.517157 0.200000 1.000000
v 1.000000 -0.000000 1.000000
v 0.800000 0.200000 1.000000
v 0.799999 1.517157 1.000000
v 0.999999 2.000000 1.000001
v -1.000000 -0.000000 1.000000
v -1.000000 2.000000 1.000000
v 0.799999 1.517157 0.900000
v -0.517157 0.200000 0.900000
v 0.800000 0.200000 0.900000
v 0.517157 1.800000 0.900000
v 0.800000 0.482843 -1.000000
v 0.800000 1.800000 -0.900000
v 0.800000 1.800000 -1.000000
v -0.800000 0.200000 -1.000000
v 0.517157 0.200000 -0.900000
v 0.517157 0.200000 -1.000000
v -1.000000 0.000000 -1.000000
v -0.800000 1.517157 -1.000000
v -1.000000 2.000000 -1.000000
v 1.000000 0.000000 -1.000000
v 1.000000 2.000000 -0.999999
v -0.517157 1.800000 -1.000000
v 0.800000 0.482843 -0.900000
v -0.517157 1.800000 -0.900000
v -0.800000 0.200000 -0.900000
v -0.800000 1.517157 -0.900000
vt 0.900000 0.758600
vt 0.241400 0.100000
vt 0.241400 0.100000
vt 0.100000 0.900000
vt 0.100000 0.241400
vt 0.100000 0.241400
vt 0.758600 0.900000
vt 0.100000 0.241400
vt 0.100000 0.241400
vt 0.100000 0.900000
vt 0.758600 0.900000
vt 0.758600 0.900000
vt 0.900000 0.758600
vt 0.900000 0.100000
vt 0.900000 0.100000
vt 0.900000 0.100000
vt 0.241400 0.100000
vt 0.241400 0.100000
vt 0.100000 0.900000
vt 0.758600 0.900000
vt 0.241400 0.100000
vt 1.000000 0.000000
vt 1.000000 1.000000
vt 0.100000 0.900000
vt 0.000000 0.000000
vt 1.000000 0.000000
vt 0.000000 0.000000
vt 0.900000 0.100000
vt 0.900000 0.758600
vt 0.900000 0.100000
vt 1.000000 1.000000
vt 1.000000 1.000000
vt 0.000000 1.000000
vt 0.000000 1.000000
vt 0.758600 0.900000
vt 0.100000 0.241400
vt 0.000000 1.000000
vt 0.000000 0.000000
vt 0.900000 0.758600
vt 1.000000 0.000000
vt 0.900000 0.758600
vt 0.900000 0.100000
vt 0.900000 0.758600
vt 0.241400 0.100000
vt 0.100000 0.900000
vt 0.758600 0.900000
vt 0.100000 0.900000
vt 0.100000 0.241400
vt 0.758600 0.900000
vt 0.100000 0.241400
vt 0.100000 0.241400
vt 0.100000 0.900000
vt 0.758600 0.900000
vt 0.241400 0.100000
vt 0.900000 0.100000
vt 0.241400 0.100000
vt 1.000000 0.000000
vt 0.900000 0.100000
vt 0.900000 0.758600
vt 1.000000 1.000000
vt 0.000000 0.000000
vt 0.000000 1.000000
vt 0.100000 0.900000
vt 0.900000 0.758600
vt 0.758600 0.100000
vt 0.100000 0.100000
vt 0.100000 0.100000
vt 0.900000 0.758600
vt 0.241400 0.100000
vt 0.241400 0.100000
vt 0.900000 0.100000
vt 0.900000 0.100000
vt 0.100000 0.241400
vt 0.000000 1.000000
vt 0.100000 0.900000
vt 0.758600 0.900000
vt 1.000000 1.000000
vt 0.000000 0.000000
vt 1.000000 0.000000
vt 0.758600 0.900000
vt 0.100000 0.241400
vt 0.100000 0.900000
vt 0.900000 0.758600
vt 0.100000 0.241400
vt 0.100000 0.900000
vt 0.100000 0.900000
vt 0.900000 0.100000
vt 0.241400 0.100000
vt 0.241400 0.100000
vt 1.000000 0.000000
vt 0.900000 0.758600
vt 1.000000 1.000000
vt 0.000000 0.000000
vt 0.000000 1.000000
vt 0.758600 0.900000
vt 0.100000 0.241400
vt 0.758600 0.900000
vt 0.900000 0.100000
vt 0.900000 0.758600
vt 0.758600 0.100000
vn 0.7071 0.0000 -0.7071
vn 0.0000 0.0000 -1.0000
vn 0.0000 0.7071 0.7071
vn 1.0000 0.0000 0.0000
vn 0.0000 0.0000 1.0000
vn 0.0000 1.0000 0.0000
vn 0.0000 -1.0000 -0.0000
vn 0.0000 -0.7071 -0.7071
vn -0.7071 0.0000 0.7071
vn -1.0000 0.0000 0.0000
vn -0.7071 0.7071 0.0000
vn 0.7071 -0.7071 0.0000
vn 0.7071 0.7071 0.0000
vn -0.7071 -0.7071 0.0000
s 1
f 1/1/1 2/2/1 3/3/1
f 4/4/2 5/5/2 6/6/2
f 7/7/3 8/8/3 9/9/3
f 10/10/4 11/11/4 12/12/4
f 13/13/5 14/14/5 15/15/5
f 16/16/6 17/17/6 18/18/6
f 19/19/7 20/20/7 7/7/7
f 21/21/6 22/22/6 15/15/6
f 13/13/6 22/22/6 23/23/6
f 9/9/2 24/24/2 19/19/2
f 13/13/6 25/25/6 21/21/6
f 20/20/4 24/24/4 8/8/4
f 3/3/7 26/26/7 27/27/7
f 1/1/7 26/26/7 28/28/7
f 29/29/4 17/17/4 30/30/4
f 9/9/4 31/31/4 7/7/4
f 1/1/7 27/27/7 32/32/7
f 7/7/4 33/33/4 19/19/4
f 6/6/7 34/34/7 4/4/7
f 35/35/7 34/34/7 32/32/7
f 36/36/6 37/37/6 25/25/6
f 12/12/6 37/37/6 10/10/6
f 6/6/7 32/32/7 27/27/7
f 12/12/6 25/25/6 23/23/6
f 9/9/4 33/33/4 38/38/4
f 18/18/4 31/31/4 38/38/4
f 39/39/4 40/40/4 31/31/4
f 18/18/4 40/40/4 16/16/4
f 39/39/5 30/30/5 16/16/5
f 18/18/8 29/29/8 39/39/8
f 2/2/7 41/41/7 42/42/7
f 43/43/6 44/44/6 14/14/6
f 5/5/7 45/45/7 46/46/7
f 11/11/6 47/47/6 48/48/6
f 6/6/9 46/46/9 35/35/9
f 3/3/10 42/42/10 28/28/10
f 35/35/4 45/45/4 4/4/4
f 21/21/1 43/43/1 13/13/1
f 15/15/10 44/44/10 21/21/10
f 12/12/9 48/48/9 36/36/9
f 28/28/5 41/41/5 1/1/5
f 36/36/2 47/47/2 10/10/2
f 49/49/8 50/50/8 51/51/8
f 52/52/5 53/53/5 49/49/5
f 54/54/2 55/55/2 56/56/2
f 54/54/10 57/57/10 58/58/10
f 59/59/10 57/57/10 60/60/10
f 59/59/10 61/61/10 54/54/10
f 51/51/10 62/62/10 61/61/10
f 49/49/10 62/62/10 52/52/10
f 51/51/10 60/60/10 49/49/10
f 50/50/10 53/53/10 63/63/10
f 56/56/10 55/55/10 64/64/10
f 59/59/7 55/55/7 58/58/7
f 54/54/3 64/64/3 59/59/3
f 51/65/6 63/66/6 52/67/6
f 65/68/11 66/69/11 67/70/11
f 67/70/4 68/71/4 69/72/4
f 70/73/5 71/74/5 72/75/5
f 73/76/5 71/74/5 74/77/5
f 73/76/5 75/78/5 70/73/5
f 67/70/5 76/79/5 75/78/5
f 65/68/5 76/79/5 69/72/5
f 67/70/5 74/77/5 65/68/5
f 77/80/5 78/81/5 79/82/5
f 80/83/5 68/71/5 66/69/5
f 69/72/7 80/83/7 65/68/7
f 70/73/12 77/80/12 73/76/12
f 72/75/6 78/81/6 70/73/6
f 73/76/10 79/82/10 72/75/10
f 81/84/10 82/85/10 83/86/10
f 84/87/6 85/88/6 86/89/6
f 86/89/2 87/90/2 84/87/2
f 88/91/2 87/90/2 89/92/2
f 88/91/2 90/93/2 86/89/2
f 81/84/2 91/94/2 90/93/2
f 92/95/2 91/94/2 83/86/2
f 81/84/2 89/92/2 92/95/2
f 93/96/2 94/97/2 82/85/2
f 85/88/2 95/98/2 96/99/2
f 88/91/4 95/98/4 84/87/4
f 92/95/13 93/96/13 81/84/13
f 86/89/14 96/99/14 88/91/14
f 83/86/7 94/97/7 92/95/7
f 1/1/1 41/41/1 2/2/1
f 4/4/2 45/45/2 5/5/2
f 7/7/3 20/20/3 8/8/3
f 10/10/4 47/47/4 11/11/4
f 13/13/5 43/43/5 14/14/5
f 16/16/6 30/30/6 17/17/6
f 19/19/7 24/24/7 20/20/7
f 21/21/6 25/25/6 22/22/6
f 13/13/6 15/15/6 22/22/6
f 9/9/2 8/8/2 24/24/2
f 13/13/6 23/23/6 25/25/6
f 3/3/7 28/28/7 26/26/7
f 1/1/7 32/32/7 26/26/7
f 9/9/4 38/38/4 31/31/4
f 1/1/7 3/3/7 27/27/7
f 7/7/4 31/31/4 33/33/4
f 6/6/7 27/27/7 34/34/7
f 35/35/7 4/4/7 34/34/7
f 36/36/6 10/10/6 37/37/6
f 12/12/6 23/23/6 37/37/6
f 6/6/7 35/35/7 32/32/7
f 12/12/6 36/36/6 25/25/6
f 9/9/4 19/19/4 33/33/4
f 18/18/4 39/39/4 31/31/4
f 39/39/4 16/16/4 40/40/4
f 18/18/4 38/38/4 40/40/4
f 39/39/5 29/29/5 30/30/5
f 18/18/8 17/17/8 29/29/8
f 6/6/9 5/5/9 46/46/9
f 3/3/10 2/2/10 42/42/10
f 35/35/4 46/46/4 45/45/4
f 21/21/1 44/44/1 43/43/1
f 15/15/10 14/14/10 44/44/10
f 12/12/9 11/11/9 48/48/9
f 28/28/5 42/42/5 41/41/5
f 36/36/2 48/48/2 47/47/2
f 49/49/8 53/53/8 50/50/8
f 52/52/5 63/63/5 53/53/5
f 54/54/2 58/58/2 55/55/2
f 54/54/10 61/61/10 57/57/10
f 59/59/10 58/58/10 57/57/10
f 59/59/10 60/60/10 61/61/10
f 51/51/10 52/52/10 62/62/10
f 49/49/10 60/60/10 62/62/10
f 51/51/10 61/61/10 60/60/10
f 59/59/7 64/64/7 55/55/7
f 54/54/3 56/56/3 64/64/3
f 51/65/6 50/100/6 63/66/6
f 65/68/11 80/83/11 66/69/11
f 67/70/4 66/69/4 68/71/4
f 70/73/5 75/78/5 71/74/5
f 73/76/5 72/75/5 71/74/5
f 73/76/5 74/77/5 75/78/5
f 67/70/5 69/72/5 76/79/5
f 65/68/5 74/77/5 76/79/5
f 67/70/5 75/78/5 74/77/5
f 69/72/7 68/71/7 80/83/7
f 70/73/12 78/81/12 77/80/12
f 72/75/6 79/82/6 78/81/6
f 73/76/10 77/80/10 79/82/10
f 81/84/10 93/96/10 82/85/10
f 84/87/6 95/98/6 85/88/6
f 86/89/2 90/93/2 87/90/2
f 88/91/2 84/87/2 87/90/2
f 88/91/2 89/92/2 90/93/2
f 81/84/2 83/86/2 91/94/2
f 92/95/2 89/92/2 91/94/2
f 81/84/2 90/93/2 89/92/2
f 88/91/4 96/99/4 95/98/4
f 92/95/13 94/97/13 93/96/13
f 86/89/14 85/88/14 96/99/14
f 83/86/7 82/85/7 94/97/7
