# Blender v2.82 (sub 7) OBJ File: 'GameScene.blend'
# www.blender.org
v -8.271325 0.000000 2.000000
v 8.271325 0.000000 2.000000
v -8.271325 0.000000 -18.406815
v 8.271325 0.000000 -18.406815
v -4.000000 2.500000 -2.000000
v 4.000000 2.500000 -2.000000
v -4.000000 2.500000 -6.000000
v 4.000000 2.500000 -6.000000
vt 3.944990 -2.207928
vt -2.856402 2.207927
vt -2.856402 -2.207928
vt 1.500000 1.500000
vt -0.500000 0.500000
vt 1.500000 0.500000
vt 3.944990 2.207927
vt -0.500000 1.500000
vn 0.0000 1.0000 0.0000
s off
f 2/1/1 3/2/1 1/3/1
f 8/4/1 5/5/1 6/6/1
f 2/1/1 4/7/1 3/2/1
f 8/4/1 7/8/1 5/5/1
