# Blender v2.82 (sub 7) OBJ File: 'GameScene.blend'
# www.blender.org
v -0.161620 -0.147256 0.291648
v 0.161620 -0.147256 0.291648
v -0.161620 3.420451 -3.276059
v 0.161620 3.420451 -3.276059
v -0.161620 -0.360543 0.078361
v -0.074144 -0.422398 0.016506
v 0.074144 -0.422398 0.016506
v 0.161620 -0.360543 0.078361
v -0.074144 3.145309 -3.551201
v -0.161620 3.207164 -3.489346
v 0.161620 3.207164 -3.489346
v 0.074144 3.145309 -3.551201
v -0.120892 3.050035 -2.690527
v 0.120892 3.050035 -2.690527
v -0.120892 3.050035 -8.081900
v 0.120892 3.050035 -8.081900
v -0.063762 2.649070 -2.690527
v -0.120892 2.706200 -2.690527
v 0.120892 2.706200 -2.690527
v 0.063762 2.649070 -2.690527
v -0.120892 2.706200 -8.081900
v -0.063762 2.649070 -8.081900
v 0.063762 2.649070 -8.081900
v 0.120892 2.706200 -8.081900
vt 1.060049 0.463061
vt -0.159452 0.446600
vt 1.060049 0.446599
vt 1.060049 0.432867
vt -0.159452 0.399382
vt 1.060049 0.399382
vt -0.159452 0.476794
vt -0.159452 0.463062
vt 1.060049 0.476794
vt -0.159452 0.510278
vt 1.084844 0.757231
vt -0.157871 0.772513
vt -0.157871 0.757231
vt 1.084790 0.783789
vt -0.157924 0.824990
vt -0.157924 0.783789
vt 1.084844 0.772512
vt -0.157817 0.745955
vt 1.084897 0.704754
vt -0.157817 0.704754
vt -0.159452 0.432867
vt 1.060049 0.510279
vt 1.084790 0.824990
vt 1.084897 0.745955
vn 0.0000 -0.7071 -0.7071
vn 1.0000 0.0000 0.0000
vn 0.7071 -0.5000 -0.5000
vn -0.7071 -0.5000 -0.5000
vn -1.0000 -0.0000 0.0000
vn 0.0000 -1.0000 0.0000
vn 0.7071 -0.7071 0.0000
vn -0.7071 -0.7071 0.0000
s off
f 6/1/1 12/2/1 7/3/1
f 8/4/2 4/5/2 2/6/2
f 12/2/3 8/4/3 7/3/3
f 6/1/4 10/7/4 9/8/4
f 5/9/5 3/10/5 10/7/5
f 22/11/6 20/12/6 17/13/6
f 24/14/2 14/15/2 19/16/2
f 24/14/7 20/12/7 23/17/7
f 18/18/8 22/11/8 17/13/8
f 15/19/5 18/18/5 13/20/5
f 6/1/1 9/8/1 12/2/1
f 8/4/2 11/21/2 4/5/2
f 12/2/3 11/21/3 8/4/3
f 6/1/4 5/9/4 10/7/4
f 5/9/5 1/22/5 3/10/5
f 22/11/6 23/17/6 20/12/6
f 24/14/2 16/23/2 14/15/2
f 24/14/7 19/16/7 20/12/7
f 18/18/8 21/24/8 22/11/8
f 15/19/5 21/24/5 18/18/5
