# Blender v2.82 (sub 7) OBJ File: 'GameScene.blend'
# www.blender.org
v 0.000000 0.000000 -0.123494
v -0.087323 0.000000 -0.087323
v -0.123494 0.000000 0.000000
v -0.087323 0.000000 0.087323
v 0.000000 0.000000 0.123494
v 0.087323 0.000000 0.087323
v 0.123494 0.000000 -0.000000
v 0.087323 0.000000 -0.087323
v 0.026566 -0.138188 -0.026566
v 0.037570 -0.138188 -0.000000
v 0.026566 -0.138188 0.026566
v 0.000000 -0.138188 0.037570
v -0.026566 -0.138188 0.026566
v -0.037570 -0.138188 0.000000
v -0.000000 -0.138188 -0.037570
v -0.026566 -0.138188 -0.026566
v -0.000000 -0.106096 -0.037570
v 0.000000 -0.036938 -0.119754
v 0.000000 -0.085840 -0.092783
v -0.084679 -0.036938 -0.084679
v -0.026566 -0.106096 -0.026566
v -0.065607 -0.085840 -0.065607
v -0.119754 -0.036938 0.000000
v -0.037570 -0.106096 0.000000
v -0.092783 -0.085840 0.000000
v -0.084679 -0.036938 0.084679
v -0.026566 -0.106096 0.026566
v -0.065607 -0.085840 0.065607
v 0.000000 -0.036938 0.119754
v 0.000000 -0.106096 0.037570
v 0.000000 -0.085840 0.092783
v 0.084679 -0.036938 0.084679
v 0.026566 -0.106096 0.026566
v 0.065607 -0.085840 0.065607
v 0.119754 -0.036938 -0.000000
v 0.037570 -0.106096 -0.000000
v 0.092783 -0.085840 -0.000000
v 0.084679 -0.036938 -0.084679
v 0.026566 -0.106096 -0.026566
v 0.065607 -0.085840 -0.065607
v 0.004818 -0.138188 -0.004818
v 0.006813 -0.138188 0.000000
v 0.004818 -0.138188 0.004818
v -0.000000 -0.138188 0.006814
v -0.004818 -0.138188 0.004818
v -0.006813 -0.138188 0.000000
v -0.000000 -0.138188 -0.006813
v -0.004818 -0.138188 -0.004818
v 0.004818 -0.511388 -0.004818
v 0.006813 -0.511388 0.000000
v 0.004818 -0.511388 0.004818
v -0.000000 -0.511388 0.006814
v -0.004818 -0.511388 0.004818
v -0.006814 -0.511388 0.000000
v -0.000000 -0.511388 -0.006813
v -0.004818 -0.511388 -0.004818
v 0.015524 -0.521598 -0.015524
v 0.021954 -0.521598 0.000000
v 0.015524 -0.521598 0.015524
v -0.000000 -0.521598 0.021954
v -0.015524 -0.521598 0.015524
v -0.021954 -0.521598 0.000000
v -0.000000 -0.521598 -0.021954
v -0.015524 -0.521598 -0.015524
v 0.012929 -0.566299 -0.012929
v 0.018284 -0.566299 0.000000
v 0.012929 -0.566299 0.012929
v -0.000000 -0.566299 0.018284
v -0.012929 -0.566299 0.012929
v -0.018284 -0.566299 0.000000
v -0.000000 -0.566299 -0.018284
v -0.012929 -0.566299 -0.012929
v 0.024262 -0.601348 -0.024262
v 0.026921 -0.617013 -0.026920
v 0.038071 -0.617013 0.000000
v 0.034311 -0.601348 0.000000
v 0.024262 -0.601348 0.024262
v 0.026921 -0.617013 0.026921
v -0.000000 -0.617013 0.038072
v -0.000000 -0.601348 0.034312
v -0.024262 -0.601348 0.024262
v -0.026921 -0.617013 0.026921
v -0.038071 -0.617013 0.000000
v -0.034311 -0.601348 0.000000
v -0.000000 -0.601348 -0.034311
v -0.000000 -0.617013 -0.038071
v -0.024262 -0.601348 -0.024262
v -0.026921 -0.617013 -0.026920
v 0.026450 -0.633563 -0.026450
v 0.021139 -0.646530 -0.021139
v 0.029895 -0.646530 0.000000
v 0.037406 -0.633563 0.000000
v 0.026450 -0.633563 0.026450
v 0.021139 -0.646530 0.021139
v -0.000000 -0.646530 0.029895
v -0.000000 -0.633563 0.037406
v -0.026450 -0.633563 0.026450
v -0.021139 -0.646530 0.021139
v -0.029895 -0.646530 0.000000
v -0.037406 -0.633563 0.000000
v -0.000000 -0.633563 -0.037406
v -0.000000 -0.646530 -0.029895
v -0.026450 -0.633563 -0.026450
v -0.021139 -0.646530 -0.021139
v 0.015172 -0.657602 0.000000
v 0.010728 -0.657602 -0.010728
v -0.000000 -0.657602 -0.015171
v -0.010728 -0.657602 -0.010728
v -0.015172 -0.657602 0.000000
v -0.010728 -0.657602 0.010728
v -0.000000 -0.657602 0.015172
v 0.010728 -0.657602 0.010728
v 0.023438 -0.584881 0.000000
v 0.013554 -0.573439 -0.013553
v -0.000000 -0.573439 -0.019168
v 0.016573 -0.584881 0.016574
v -0.000000 -0.584881 0.023439
v -0.016574 -0.584881 0.016574
v -0.023439 -0.584881 0.000000
v -0.016574 -0.584881 -0.016573
v 0.015524 -0.566166 -0.015524
v 0.021954 -0.566166 0.000000
v 0.015524 -0.566166 0.015524
v -0.000000 -0.566166 0.021954
v -0.015524 -0.566166 0.015524
v -0.021954 -0.566166 0.000000
v -0.000000 -0.566166 -0.021954
v -0.015524 -0.566166 -0.015524
v 0.016573 -0.584881 -0.016573
v 0.019168 -0.573439 0.000000
v -0.013554 -0.573439 0.013554
v -0.019168 -0.573439 0.000000
v -0.013554 -0.573439 -0.013553
v -0.000000 -0.584881 -0.023438
v 0.013554 -0.573439 0.013554
v -0.000000 -0.573439 0.019168
v -0.000000 -0.663064 0.000000
vt 0.742469 0.550044
vt 0.542293 0.519521
vt 0.728346 0.476364
vt 0.323055 0.330484
vt 0.488767 0.235310
vt 0.369828 0.385702
vt 0.208022 0.480330
vt 0.326573 0.802836
vt 0.194830 0.959388
vt 0.259768 0.766611
vt 0.567501 0.586641
vt 0.379572 0.614793
vt 0.422643 0.199305
vt 0.553333 0.044586
vt 0.656482 0.860639
vt 0.658623 0.921458
vt 0.619671 0.881425
vt 0.426771 0.670339
vt 0.008557 0.449883
vt 0.022618 0.523306
vt 0.172750 0.168191
vt 0.152257 0.316706
vt 0.112222 0.197596
vt 0.259199 0.254498
vt 0.182998 0.413512
vt 0.331181 0.153218
vt 0.217117 0.114035
vt 0.354743 0.018308
vt 0.233220 0.046162
vt 0.475081 0.023049
vt 0.598579 0.683824
vt 0.701038 0.799006
vt 0.639220 0.802974
vt 0.742469 0.670190
vt 0.578846 0.832924
vt 0.491296 0.746662
vt 0.419000 0.849107
vt 0.534406 0.888012
vt 0.518214 0.957090
vt 0.395513 0.985625
vt 0.049959 0.201291
vt 0.008557 0.330074
vt 0.596768 0.918044
vt 0.708209 0.859039
vt 0.132973 0.119412
vt 0.155943 0.083823
vt 0.042840 0.140548
vt 0.936370 0.955747
vt 0.917457 0.151025
vt 0.949057 0.955213
vt 0.095273 0.078703
vt 0.085062 0.082764
vt 0.095685 0.139766
vt 0.101721 0.069742
vt 0.160739 0.029468
vt 0.654047 0.931624
vt 0.655712 0.943181
vt 0.592248 0.974267
vt 0.678715 0.917214
vt 0.073857 0.080654
vt 0.763999 0.863417
vt 0.760926 0.814585
vt 0.774429 0.819198
vt 0.875366 0.156269
vt 0.923686 0.956303
vt 0.909712 0.956927
vt 0.816116 0.817797
vt 0.834556 0.029723
vt 0.848303 0.030261
vt 0.889317 0.153638
vt 0.788764 0.821729
vt 0.809615 0.028704
vt 0.822085 0.029224
vt 0.803375 0.822035
vt 0.797151 0.028162
vt 0.961743 0.954701
vt 0.790715 0.929598
vt 0.790798 0.864751
vt 0.959451 0.121694
vt 0.931541 0.153959
vt 0.903181 0.151231
vt 0.929874 0.112559
vt 0.848763 0.119364
vt 0.815667 0.861651
vt 0.905038 0.109876
vt 0.611959 0.332554
vt 0.615977 0.400892
vt 0.583307 0.366772
vt 0.817073 0.929449
vt 0.763261 0.933220
vt 0.727577 0.852959
vt 0.935892 0.048517
vt 0.910948 0.048303
vt 0.852121 0.033985
vt 0.878623 0.111544
vt 0.848303 0.936501
vt 0.845726 0.851226
vt 0.883721 0.044729
vt 0.616181 0.255371
vt 0.631502 0.310430
vt 0.593357 0.275673
vt 0.579820 0.201677
vt 0.546312 0.230417
vt 0.164006 0.749351
vt 0.112804 0.720317
vt 0.136282 0.705276
vt 0.062248 0.808397
vt 0.108996 0.771998
vt 0.114226 0.827776
vt 0.105414 0.663248
vt 0.198434 0.807127
vt 0.136243 0.762942
vt 0.650015 0.289664
vt 0.672892 0.342682
vt 0.081651 0.683471
vt 0.061720 0.609743
vt 0.507055 0.313726
vt 0.572560 0.299579
vt 0.547570 0.337117
vt 0.231230 0.778545
vt 0.226684 0.700543
vt 0.260930 0.733320
vt 0.198076 0.664702
vt 0.132637 0.645401
vt 0.173578 0.625016
vt 0.160938 0.689052
vt 0.101774 0.587734
vt 0.156084 0.579023
vt 0.651322 0.367544
vt 0.644430 0.442588
vt 0.711197 0.254872
vt 0.754109 0.299538
vt 0.701845 0.291313
vt 0.062170 0.753825
vt 0.091614 0.734123
vt 0.619534 0.188320
vt 0.675224 0.222787
vt 0.639595 0.239392
vt 0.044074 0.736728
vt 0.063444 0.704335
vt 0.666510 0.270651
vt 0.015887 0.731088
vt 0.015901 0.681568
vt 0.698297 0.415867
vt 0.730887 0.382399
vt 0.190577 0.731519
vt 0.751556 0.340205
vt 0.690214 0.316498
vt 0.689106 0.243684
vt 0.715606 0.213898
vt 0.572802 0.434094
vt 0.612799 0.457139
vt 0.594993 0.467722
vt 0.203727 0.609719
vt 0.207433 0.565348
vt 0.221635 0.600926
vt 0.250216 0.678478
vt 0.241150 0.634349
vt 0.265126 0.664833
vt 0.224640 0.645666
vt 0.517138 0.380663
vt 0.560417 0.390518
vt 0.546800 0.404915
vt 0.292893 0.691142
vt 0.494330 0.343502
vt 0.484804 0.360591
vt 0.589188 0.421447
vt 0.961743 0.042596
vt 0.935243 0.043028
vt 0.958129 0.037593
vt 0.885328 0.037884
vt 0.911345 0.042215
vt 0.738201 0.950427
vt 0.764831 0.939843
vt 0.843377 0.943103
vt 0.816316 0.935424
vt 0.791059 0.935889
vt 0.857292 0.028162
vt 0.189053 0.571545
vt 0.528588 0.364436
vt 0.280314 0.705943
vt 0.027979 0.775030
vt 0.069673 0.778039
vt 0.739741 0.252149
vt 0.673801 0.192045
vt 0.273916 0.981028
vt 0.667862 0.915381
vt 0.101046 0.058507
vt 0.732606 0.944276
vt 0.157141 0.826040
vt 0.030056 0.643649
vt 0.523184 0.265536
vn -0.6778 -0.2848 0.6778
vn 0.0000 -0.1007 0.9949
vn -0.7035 -0.1007 0.7035
vn -0.6778 -0.2848 -0.6778
vn -0.9949 -0.1007 0.0000
vn -0.7035 -0.1007 -0.7035
vn 0.0000 -0.1007 -0.9949
vn 0.9586 -0.2848 0.0000
vn 0.7035 -0.1007 -0.7035
vn 0.9949 -0.1007 0.0000
vn 0.0000 -0.2848 0.9586
vn 0.7035 -0.1007 0.7035
vn -0.9586 -0.2848 0.0000
vn 0.0000 -0.6302 0.7764
vn 0.4203 -0.8042 0.4203
vn 0.5490 -0.6302 0.5490
vn 0.6778 -0.2848 0.6778
vn 0.6778 -0.2848 -0.6778
vn -0.5380 -0.6489 -0.5380
vn 0.0000 -0.7182 -0.6959
vn 0.0000 -0.6489 -0.7608
vn -0.4920 -0.7182 -0.4920
vn 0.0000 -0.2848 -0.9586
vn -0.6959 -0.7182 0.0000
vn -0.7608 -0.6489 0.0000
vn -0.4920 -0.7182 0.4920
vn -0.5380 -0.6489 0.5380
vn 0.0000 -0.7182 0.6959
vn 0.0000 -0.6489 0.7608
vn 0.5380 -0.6489 0.5380
vn 0.4920 -0.7182 0.4920
vn 0.6959 -0.7182 0.0000
vn 0.7608 -0.6489 0.0000
vn 0.5380 -0.6489 -0.5380
vn 0.4920 -0.7182 -0.4920
vn 0.7764 -0.6302 0.0000
vn -0.5490 -0.6302 0.5490
vn -0.5490 -0.6302 -0.5490
vn -0.7764 -0.6302 0.0000
vn 0.5490 -0.6302 -0.5490
vn 0.8514 0.5245 0.0000
vn 0.5943 -0.8042 0.0000
vn -0.4203 -0.8042 -0.4203
vn 0.0000 -0.8042 -0.5943
vn 0.0000 -0.6302 -0.7764
vn -0.5943 -0.8042 0.0000
vn 0.4203 -0.8042 -0.4203
vn -0.4203 -0.8042 0.4203
vn -0.9040 0.4276 0.0000
vn -0.6020 0.5245 0.6020
vn -0.8514 0.5245 0.0000
vn 0.0000 -0.8042 0.5943
vn 0.6020 0.5245 -0.6020
vn 0.0000 0.5245 0.8514
vn -0.6020 0.5245 -0.6020
vn 0.0000 0.5245 -0.8514
vn -0.5553 -0.6190 -0.5553
vn -0.6392 0.4276 -0.6392
vn 0.6392 0.4276 -0.6392
vn 0.6020 0.5245 0.6020
vn 0.9040 0.4276 0.0000
vn -0.6392 0.4276 0.6392
vn 0.0000 0.4276 -0.9040
vn 0.6392 0.4276 0.6392
vn 0.6530 0.3835 0.6530
vn 0.8854 0.4648 0.0000
vn 0.6261 0.4648 0.6261
vn 0.0000 -0.6190 -0.7854
vn -0.7853 -0.6190 0.0000
vn 0.7853 -0.6190 0.0000
vn 0.5553 -0.6190 0.5553
vn -0.5553 -0.6190 0.5553
vn 0.0000 0.4276 0.9040
vn 0.5553 -0.6190 -0.5553
vn 0.0000 -0.6190 0.7854
vn 0.0000 -0.2643 0.9644
vn 0.7039 0.0944 0.7039
vn 0.0000 0.0944 0.9955
vn -0.6819 -0.2643 0.6819
vn -0.7039 0.0944 0.7039
vn 0.0000 0.0944 -0.9955
vn -0.6819 -0.2643 -0.6819
vn -0.7039 0.0944 -0.7039
vn 0.3555 -0.8644 -0.3555
vn 0.0000 -0.6401 -0.7682
vn 0.5432 -0.6401 -0.5432
vn -0.9955 0.0944 0.0000
vn 0.7039 0.0944 -0.7039
vn 0.0000 -0.2643 -0.9644
vn 0.6819 -0.2643 0.6819
vn 0.9955 0.0944 0.0000
vn -0.9644 -0.2643 0.0000
vn -0.6261 0.4648 0.6261
vn 0.0000 0.3835 0.9235
vn 0.0000 0.4648 0.8854
vn 0.6530 0.3835 -0.6530
vn 0.0000 0.4648 -0.8854
vn 0.6261 0.4648 -0.6261
vn -0.6261 0.4648 -0.6261
vn -0.9235 0.3835 0.0000
vn -0.8854 0.4648 0.0000
vn -0.6530 0.3835 -0.6530
vn -0.6530 0.3835 0.6530
vn 0.9235 0.3835 0.0000
vn 0.5028 -0.8644 0.0000
vn 0.7682 -0.6401 0.0000
vn -0.3555 -0.8644 -0.3555
vn -0.5432 -0.6401 -0.5432
vn -0.5432 -0.6401 0.5432
vn 0.0000 -0.8644 0.5028
vn 0.0000 -0.6401 0.7682
vn -0.5028 -0.8644 0.0000
vn -0.7682 -0.6401 0.0000
vn 0.5432 -0.6401 0.5432
vn -0.3555 -0.8644 0.3555
vn 0.0000 0.3835 -0.9235
vn 0.6819 -0.2643 -0.6819
vn 0.9644 -0.2643 0.0000
vn 0.3555 -0.8644 0.3555
vn 0.0000 -1.0000 0.0000
vn 0.6586 -0.7525 0.0000
vn 0.6856 0.2447 -0.6856
vn 0.4657 -0.7525 -0.4657
vn -0.9696 0.2447 0.0000
vn -0.4657 -0.7525 0.4657
vn -0.6586 -0.7525 0.0000
vn 0.0000 0.2447 -0.9696
vn -0.4657 -0.7525 -0.4657
vn 0.0000 -0.7525 -0.6586
vn -0.6856 0.2447 -0.6856
vn 0.0000 -0.7525 0.6586
vn 0.6856 0.2447 0.6856
vn 0.4657 -0.7525 0.4657
vn -0.6856 0.2447 0.6856
vn 0.9696 0.2447 0.0000
vn 0.0000 0.2447 0.9696
vn 0.0000 -0.8644 -0.5028
s 1
f 26/1/1 5/2/2 4/3/3
f 20/4/4 3/5/5 2/6/6
f 1/7/7 20/4/4 2/6/6
f 35/8/8 8/9/9 7/10/10
f 29/11/11 6/12/12 5/2/2
f 23/13/13 4/14/3 3/5/5
f 12/15/14 43/16/15 11/17/16
f 32/18/17 7/10/10 6/12/12
f 38/19/18 1/7/7 8/20/9
f 21/21/19 19/22/20 17/23/21
f 22/24/22 18/25/23 19/22/20
f 25/26/24 21/21/19 24/27/25
f 23/13/13 22/24/22 25/26/24
f 28/28/26 24/27/25 27/29/27
f 26/30/1 25/26/24 28/28/26
f 31/31/28 27/32/27 30/33/29
f 29/11/11 28/34/26 31/31/28
f 33/35/30 31/31/28 30/33/29
f 34/36/31 29/11/11 31/31/28
f 37/37/32 33/35/30 36/38/33
f 35/8/8 34/36/31 37/37/32
f 39/39/34 37/37/32 36/38/33
f 40/40/35 35/8/8 37/37/32
f 19/22/20 39/41/34 17/23/21
f 18/25/23 40/42/35 19/22/20
f 10/43/36 39/39/34 36/38/33
f 13/44/37 30/33/29 27/32/27
f 12/15/14 33/35/30 30/33/29
f 17/23/21 16/45/38 21/21/19
f 21/21/19 14/46/39 24/27/25
f 11/17/16 36/38/33 33/35/30
f 9/47/40 17/23/21 39/41/34
f 14/46/39 27/29/27 24/27/25
f 43/48/15 50/49/41 42/50/42
f 48/51/43 14/46/39 16/45/38
f 47/52/44 16/45/38 15/53/45
f 46/54/46 13/55/37 14/46/39
f 11/17/16 42/56/42 10/43/36
f 10/43/36 41/57/47 9/58/40
f 45/59/48 12/15/14 13/44/37
f 41/60/47 15/53/45 9/47/40
f 62/61/49 53/62/50 54/63/51
f 53/64/50 44/65/52 45/66/48
f 49/67/53 47/68/44 41/69/47
f 52/70/54 43/48/15 44/65/52
f 56/71/55 46/72/46 48/73/43
f 55/74/56 48/73/43 47/68/44
f 54/63/51 45/75/48 46/72/46
f 50/49/41 41/76/47 42/50/42
f 128/77/57 62/61/49 64/78/58
f 50/49/41 57/79/59 49/80/53
f 51/81/60 58/82/61 50/49/41
f 61/83/62 52/70/54 53/64/50
f 49/67/53 63/84/63 55/74/56
f 52/70/54 59/85/64 51/81/60
f 64/78/58 54/63/51 56/71/55
f 63/84/63 56/71/55 55/74/56
f 77/86/65 113/87/66 116/88/67
f 127/89/68 64/78/58 63/84/63
f 126/90/69 61/91/62 62/61/49
f 122/92/70 57/79/59 58/82/61
f 123/93/71 58/82/61 59/85/64
f 125/94/72 60/95/73 61/83/62
f 121/96/74 63/84/63 57/97/59
f 124/98/75 59/85/64 60/95/73
f 96/99/76 78/100/77 79/101/78
f 97/102/79 79/101/78 82/103/80
f 86/104/81 103/105/82 88/106/83
f 106/107/84 102/108/85 90/109/86
f 103/105/82 83/110/87 88/106/83
f 74/111/88 101/112/89 86/104/81
f 93/113/90 75/114/91 78/100/77
f 100/115/92 82/116/80 83/110/87
f 118/117/93 80/118/94 117/119/95
f 73/120/96 134/121/97 129/122/98
f 80/118/94 116/88/67 117/119/95
f 120/123/99 84/124/100 119/125/101
f 134/121/97 87/126/102 120/123/99
f 119/125/101 81/127/103 118/128/93
f 76/129/104 129/130/98 113/87/66
f 105/131/105 90/132/86 91/133/106
f 102/108/85 108/134/107 104/135/108
f 98/136/109 111/137/110 95/138/111
f 104/135/108 109/139/112 99/140/113
f 111/137/110 94/141/114 95/138/111
f 99/140/113 110/142/115 98/143/109
f 73/144/96 75/114/91 74/145/88
f 77/86/65 79/101/78 78/100/77
f 81/127/103 83/110/87 82/116/80
f 86/104/81 73/120/96 74/111/88
f 88/106/83 85/146/116 86/104/81
f 80/118/94 82/103/80 79/101/78
f 83/110/87 87/126/102 88/106/83
f 76/129/104 78/100/77 75/114/91
f 89/147/117 91/133/106 90/132/86
f 93/113/90 95/138/111 94/141/114
f 98/143/109 100/115/92 99/140/113
f 101/112/89 90/109/86 102/108/85
f 103/105/82 102/108/85 104/135/108
f 96/99/76 98/136/109 95/138/111
f 99/140/113 103/105/82 104/135/108
f 92/148/118 94/141/114 91/133/106
f 75/114/91 89/147/117 74/145/88
f 112/149/119 137/150/120 105/131/105
f 94/141/114 105/131/105 91/133/106
f 66/151/121 114/152/122 65/153/123
f 132/154/124 69/155/125 70/156/126
f 115/157/127 72/158/128 71/159/129
f 133/160/130 70/156/126 72/158/128
f 68/161/131 135/162/132 67/163/133
f 65/164/123 115/157/127 71/159/129
f 131/165/134 68/161/131 69/166/125
f 67/163/133 130/167/135 66/151/121
f 121/168/74 66/169/121 65/170/123
f 123/93/71 68/171/131 67/172/133
f 69/173/125 126/90/69 70/174/126
f 127/89/68 65/175/123 71/176/129
f 72/177/128 127/89/68 71/176/129
f 68/171/131 125/94/72 69/178/125
f 70/174/126 128/77/57 72/177/128
f 122/92/70 67/172/133 66/169/121
f 130/167/135 129/130/98 114/152/122
f 119/125/101 131/179/134 132/154/124
f 134/121/97 133/160/130 115/157/127
f 120/123/99 132/154/124 133/160/130
f 136/180/136 116/88/67 135/162/132
f 114/181/122 134/121/97 115/157/127
f 118/117/93 136/180/136 131/165/134
f 135/162/132 113/87/66 130/167/135
f 111/137/110 137/150/120 112/149/119
f 109/139/112 137/182/120 110/142/115
f 107/183/137 137/182/120 108/134/107
f 105/131/105 137/150/120 106/184/84
f 110/185/115 137/150/120 111/137/110
f 108/134/107 137/182/120 109/139/112
f 106/107/84 137/182/120 107/183/137
f 26/1/1 29/11/11 5/2/2
f 20/4/4 23/13/13 3/5/5
f 1/7/7 18/25/23 20/4/4
f 35/8/8 38/186/18 8/9/9
f 29/11/11 32/18/17 6/12/12
f 23/13/13 26/30/1 4/14/3
f 12/15/14 44/187/52 43/16/15
f 32/18/17 35/8/8 7/10/10
f 38/19/18 18/25/23 1/7/7
f 21/21/19 22/24/22 19/22/20
f 22/24/22 20/4/4 18/25/23
f 25/26/24 22/24/22 21/21/19
f 23/13/13 20/4/4 22/24/22
f 28/28/26 25/26/24 24/27/25
f 26/30/1 23/13/13 25/26/24
f 31/31/28 28/34/26 27/32/27
f 29/11/11 26/1/1 28/34/26
f 33/35/30 34/36/31 31/31/28
f 34/36/31 32/18/17 29/11/11
f 37/37/32 34/36/31 33/35/30
f 35/8/8 32/18/17 34/36/31
f 39/39/34 40/40/35 37/37/32
f 40/40/35 38/186/18 35/8/8
f 19/22/20 40/42/35 39/41/34
f 18/25/23 38/19/18 40/42/35
f 10/43/36 9/58/40 39/39/34
f 13/44/37 12/15/14 30/33/29
f 12/15/14 11/17/16 33/35/30
f 17/23/21 15/53/45 16/45/38
f 21/21/19 16/45/38 14/46/39
f 11/17/16 10/43/36 36/38/33
f 9/47/40 15/53/45 17/23/21
f 14/46/39 13/55/37 27/29/27
f 43/48/15 51/81/60 50/49/41
f 48/51/43 46/54/46 14/46/39
f 47/52/44 48/51/43 16/45/38
f 46/54/46 45/188/48 13/55/37
f 11/17/16 43/16/15 42/56/42
f 10/43/36 42/56/42 41/57/47
f 45/59/48 44/187/52 12/15/14
f 41/60/47 47/52/44 15/53/45
f 62/61/49 61/91/62 53/62/50
f 53/64/50 52/70/54 44/65/52
f 49/67/53 55/74/56 47/68/44
f 52/70/54 51/81/60 43/48/15
f 56/71/55 54/63/51 46/72/46
f 55/74/56 56/71/55 48/73/43
f 54/63/51 53/62/50 45/75/48
f 50/49/41 49/80/53 41/76/47
f 128/77/57 126/90/69 62/61/49
f 50/49/41 58/82/61 57/79/59
f 51/81/60 59/85/64 58/82/61
f 61/83/62 60/95/73 52/70/54
f 49/67/53 57/97/59 63/84/63
f 52/70/54 60/95/73 59/85/64
f 64/78/58 62/61/49 54/63/51
f 63/84/63 64/78/58 56/71/55
f 77/86/65 76/129/104 113/87/66
f 127/89/68 128/77/57 64/78/58
f 126/90/69 125/189/72 61/91/62
f 122/92/70 121/168/74 57/79/59
f 123/93/71 122/92/70 58/82/61
f 125/94/72 124/98/75 60/95/73
f 121/96/74 127/89/68 63/84/63
f 124/98/75 123/93/71 59/85/64
f 96/99/76 93/113/90 78/100/77
f 97/102/79 96/99/76 79/101/78
f 86/104/81 101/112/89 103/105/82
f 106/107/84 107/183/137 102/108/85
f 103/105/82 100/115/92 83/110/87
f 74/111/88 89/190/117 101/112/89
f 93/113/90 92/148/118 75/114/91
f 100/115/92 97/191/79 82/116/80
f 118/117/93 81/192/103 80/118/94
f 73/120/96 85/146/116 134/121/97
f 80/118/94 77/86/65 116/88/67
f 120/123/99 87/126/102 84/124/100
f 134/121/97 85/146/116 87/126/102
f 119/125/101 84/124/100 81/127/103
f 76/129/104 73/144/96 129/130/98
f 105/131/105 106/184/84 90/132/86
f 102/108/85 107/183/137 108/134/107
f 98/136/109 110/185/115 111/137/110
f 104/135/108 108/134/107 109/139/112
f 111/137/110 112/149/119 94/141/114
f 99/140/113 109/139/112 110/142/115
f 73/144/96 76/129/104 75/114/91
f 77/86/65 80/118/94 79/101/78
f 81/127/103 84/124/100 83/110/87
f 86/104/81 85/146/116 73/120/96
f 88/106/83 87/126/102 85/146/116
f 80/118/94 81/192/103 82/103/80
f 83/110/87 84/124/100 87/126/102
f 76/129/104 77/86/65 78/100/77
f 89/147/117 92/148/118 91/133/106
f 93/113/90 96/99/76 95/138/111
f 98/143/109 97/191/79 100/115/92
f 101/112/89 89/190/117 90/109/86
f 103/105/82 101/112/89 102/108/85
f 96/99/76 97/102/79 98/136/109
f 99/140/113 100/115/92 103/105/82
f 92/148/118 93/113/90 94/141/114
f 75/114/91 92/148/118 89/147/117
f 94/141/114 112/149/119 105/131/105
f 66/151/121 130/167/135 114/152/122
f 132/154/124 131/179/134 69/155/125
f 115/157/127 133/160/130 72/158/128
f 133/160/130 132/154/124 70/156/126
f 68/161/131 136/180/136 135/162/132
f 65/164/123 114/181/122 115/157/127
f 131/165/134 136/180/136 68/161/131
f 67/163/133 135/162/132 130/167/135
f 121/168/74 122/92/70 66/169/121
f 123/93/71 124/98/75 68/171/131
f 69/173/125 125/189/72 126/90/69
f 127/89/68 121/96/74 65/175/123
f 72/177/128 128/77/57 127/89/68
f 68/171/131 124/98/75 125/94/72
f 70/174/126 126/90/69 128/77/57
f 122/92/70 123/93/71 67/172/133
f 130/167/135 113/87/66 129/130/98
f 119/125/101 118/128/93 131/179/134
f 134/121/97 120/123/99 133/160/130
f 120/123/99 119/125/101 132/154/124
f 136/180/136 117/119/95 116/88/67
f 114/181/122 129/122/98 134/121/97
f 118/117/93 117/119/95 136/180/136
f 135/162/132 116/88/67 113/87/66
