# Blender v2.82 (sub 7) OBJ File: 'GameScene.blend'
# www.blender.org
v 0.000000 0.000000 -0.123494
v -0.087323 0.000000 -0.087323
v -0.123494 0.000000 0.000000
v -0.087323 0.000000 0.087323
v 0.000000 0.000000 0.123494
v 0.087323 0.000000 0.087323
v 0.123494 0.000000 -0.000000
v 0.087323 0.000000 -0.087323
v 0.026566 -0.138188 -0.026566
v 0.037570 -0.138188 -0.000000
v 0.026566 -0.138188 0.026566
v 0.000000 -0.138188 0.037570
v -0.026566 -0.138188 0.026566
v -0.037570 -0.138188 0.000000
v -0.000000 -0.138188 -0.037570
v -0.026566 -0.138188 -0.026566
v -0.000000 -0.106096 -0.037570
v 0.000000 -0.036938 -0.119754
v 0.000000 -0.085840 -0.092783
v -0.084679 -0.036938 -0.084679
v -0.026566 -0.106096 -0.026566
v -0.065607 -0.085840 -0.065607
v -0.119754 -0.036938 0.000000
v -0.037570 -0.106096 0.000000
v -0.092783 -0.085840 0.000000
v -0.084679 -0.036938 0.084679
v -0.026566 -0.106096 0.026566
v -0.065607 -0.085840 0.065607
v 0.000000 -0.036938 0.119754
v 0.000000 -0.106096 0.037570
v 0.000000 -0.085840 0.092783
v 0.084679 -0.036938 0.084679
v 0.026566 -0.106096 0.026566
v 0.065607 -0.085840 0.065607
v 0.119754 -0.036938 -0.000000
v 0.037570 -0.106096 -0.000000
v 0.092783 -0.085840 -0.000000
v 0.084679 -0.036938 -0.084679
v 0.026566 -0.106096 -0.026566
v 0.065607 -0.085840 -0.065607
v 0.004818 -0.138188 -0.004818
v 0.006813 -0.138188 0.000000
v 0.004818 -0.138188 0.004818
v -0.000000 -0.138188 0.006814
v -0.004818 -0.138188 0.004818
v -0.006813 -0.138188 0.000000
v -0.000000 -0.138188 -0.006813
v -0.004818 -0.138188 -0.004818
v 0.004818 -0.511388 -0.004818
v 0.006813 -0.511388 0.000000
v 0.004818 -0.511388 0.004818
v -0.000000 -0.511388 0.006814
v -0.004818 -0.511388 0.004818
v -0.006814 -0.511388 0.000000
v -0.000000 -0.511388 -0.006813
v -0.004818 -0.511388 -0.004818
v 0.015524 -0.521598 -0.015524
v 0.021954 -0.521598 0.000000
v 0.015524 -0.521598 0.015524
v -0.000000 -0.521598 0.021954
v -0.015524 -0.521598 0.015524
v -0.021954 -0.521598 0.000000
v -0.000000 -0.521598 -0.021954
v -0.015524 -0.521598 -0.015524
v 0.012929 -0.566299 -0.012929
v 0.018284 -0.566299 0.000000
v 0.012929 -0.566299 0.012929
v -0.000000 -0.566299 0.018284
v -0.012929 -0.566299 0.012929
v -0.018284 -0.566299 0.000000
v -0.000000 -0.566299 -0.018284
v -0.012929 -0.566299 -0.012929
v 0.024262 -0.601348 -0.024262
v 0.026921 -0.617013 -0.026920
v 0.038071 -0.617013 0.000000
v 0.034311 -0.601348 0.000000
v 0.024262 -0.601348 0.024262
v 0.026921 -0.617013 0.026921
v -0.000000 -0.617013 0.038072
v -0.000000 -0.601348 0.034312
v -0.024262 -0.601348 0.024262
v -0.026921 -0.617013 0.026921
v -0.038071 -0.617013 0.000000
v -0.034311 -0.601348 0.000000
v -0.000000 -0.601348 -0.034311
v -0.000000 -0.617013 -0.038071
v -0.024262 -0.601348 -0.024262
v -0.026921 -0.617013 -0.026920
v 0.026450 -0.633563 -0.026450
v 0.021139 -0.646530 -0.021139
v 0.029895 -0.646530 0.000000
v 0.037406 -0.633563 0.000000
v 0.026450 -0.633563 0.026450
v 0.021139 -0.646530 0.021139
v -0.000000 -0.646530 0.029895
v -0.000000 -0.633563 0.037406
v -0.026450 -0.633563 0.026450
v -0.021139 -0.646530 0.021139
v -0.029895 -0.646530 0.000000
v -0.037406 -0.633563 0.000000
v -0.000000 -0.633563 -0.037406
v -0.000000 -0.646530 -0.029895
v -0.026450 -0.633563 -0.026450
v -0.021139 -0.646530 -0.021139
v 0.015172 -0.657602 0.000000
v 0.010728 -0.657602 -0.010728
v -0.000000 -0.657602 -0.015171
v -0.010728 -0.657602 -0.010728
v -0.015172 -0.657602 0.000000
v -0.010728 -0.657602 0.010728
v -0.000000 -0.657602 0.015172
v 0.010728 -0.657602 0.010728
v 0.023438 -0.584881 0.000000
v 0.013554 -0.573439 -0.013553
v -0.000000 -0.573439 -0.019168
v 0.016573 -0.584881 0.016574
v -0.000000 -0.584881 0.023439
v -0.016574 -0.584881 0.016574
v -0.023439 -0.584881 0.000000
v -0.016574 -0.584881 -0.016573
v 0.015524 -0.566166 -0.015524
v 0.021954 -0.566166 0.000000
v 0.015524 -0.566166 0.015524
v -0.000000 -0.566166 0.021954
v -0.015524 -0.566166 0.015524
v -0.021954 -0.566166 0.000000
v -0.000000 -0.566166 -0.021954
v -0.015524 -0.566166 -0.015524
v 0.016573 -0.584881 -0.016573
v 0.019168 -0.573439 0.000000
v -0.013554 -0.573439 0.013554
v -0.019168 -0.573439 0.000000
v -0.013554 -0.573439 -0.013553
v -0.000000 -0.584881 -0.023438
v 0.013554 -0.573439 0.013554
v -0.000000 -0.573439 0.019168
v -0.000000 -0.663064 0.000000
vt 0.000000 0.000000
vt 0.000000 0.000000
vt 0.000000 0.000000
vt 0.000000 0.000000
vt 0.000000 0.000000
vt 0.000000 0.000000
vt 0.000000 0.000000
vt 0.000000 0.000000
vt 0.000000 0.000000
vt 0.000000 0.000000
vt 0.000000 0.000000
vt 0.000000 0.000000
vt 0.000000 0.000000
vt 0.000000 0.000000
vt 0.000000 0.000000
vt 0.000000 0.000000
vt 0.000000 0.000000
vt 0.000000 0.000000
vt 0.000000 0.000000
vt 0.000000 0.000000
vt 0.000000 0.000000
vt 0.000000 0.000000
vt 0.000000 0.000000
vt 0.000000 0.000000
vt 0.000000 0.000000
vt 0.000000 0.000000
vt 0.000000 0.000000
vt 0.000000 0.000000
vt 0.000000 0.000000
vt 0.000000 0.000000
vt 0.000000 0.000000
vt 0.000000 0.000000
vt 0.000000 0.000000
vt 0.000000 0.000000
vt 0.000000 0.000000
vt 0.000000 0.000000
vt 0.000000 0.000000
vt 0.000000 0.000000
vt 0.000000 0.000000
vt 0.000000 0.000000
vt 0.000000 0.000000
vt 0.000000 0.000000
vt 0.000000 0.000000
vt 0.000000 0.000000
vt 0.000000 0.000000
vt 0.000000 0.000000
vt 0.000000 0.000000
vt 0.000000 0.000000
vt 0.000000 0.000000
vt 0.000000 0.000000
vt 0.000000 0.000000
vt 0.000000 0.000000
vt 0.000000 0.000000
vt 0.000000 0.000000
vt 0.000000 0.000000
vt 0.000000 0.000000
vt 0.000000 0.000000
vt 0.000000 0.000000
vt 0.000000 0.000000
vt 0.000000 0.000000
vt 0.000000 0.000000
vt 0.000000 0.000000
vt 0.000000 0.000000
vt 0.000000 0.000000
vt 0.000000 0.000000
vt 0.000000 0.000000
vt 0.000000 0.000000
vt 0.000000 0.000000
vt 0.000000 0.000000
vt 0.000000 0.000000
vt 0.000000 0.000000
vt 0.000000 0.000000
vt 0.000000 0.000000
vt 0.000000 0.000000
vt 0.000000 0.000000
vt 0.000000 0.000000
vt 0.000000 0.000000
vt 0.000000 0.000000
vt 0.000000 0.000000
vt 0.000000 0.000000
vt 0.000000 0.000000
vt 0.000000 0.000000
vt 0.000000 0.000000
vt 0.000000 0.000000
vt 0.000000 0.000000
vt 0.000000 0.000000
vt 0.000000 0.000000
vt 0.000000 0.000000
vt 0.000000 0.000000
vt 0.000000 0.000000
vt 0.000000 0.000000
vt 0.000000 0.000000
vt 0.000000 0.000000
vt 0.000000 0.000000
vt 0.000000 0.000000
vt 0.000000 0.000000
vt 0.000000 0.000000
vt 0.000000 0.000000
vt 0.000000 0.000000
vt 0.000000 0.000000
vt 0.000000 0.000000
vt 0.000000 0.000000
vt 0.000000 0.000000
vt 0.000000 0.000000
vt 0.000000 0.000000
vt 0.000000 0.000000
vt 0.000000 0.000000
vt 0.000000 0.000000
vt 0.000000 0.000000
vt 0.000000 0.000000
vt 0.000000 0.000000
vt 0.000000 0.000000
vt 0.000000 0.000000
vt 0.000000 0.000000
vt 0.000000 0.000000
vt 0.000000 0.000000
vt 0.000000 0.000000
vt 0.000000 0.000000
vt 0.000000 0.000000
vt 0.000000 0.000000
vt 0.000000 0.000000
vt 0.000000 0.000000
vt 0.000000 0.000000
vt 0.000000 0.000000
vt 0.000000 0.000000
vt 0.000000 0.000000
vt 0.000000 0.000000
vt 0.000000 0.000000
vt 0.000000 0.000000
vt 0.000000 0.000000
vt 0.000000 0.000000
vt 0.000000 0.000000
vt 0.000000 0.000000
vt 0.000000 0.000000
vt 0.000000 0.000000
vt 0.000000 0.000000
vt 0.000000 0.000000
vn -0.6778 -0.2848 0.6778
vn 0.0000 -0.1007 0.9949
vn -0.7035 -0.1007 0.7035
vn -0.6778 -0.2848 -0.6778
vn -0.9949 -0.1007 0.0000
vn -0.7035 -0.1007 -0.7035
vn 0.0000 -0.1007 -0.9949
vn 0.9586 -0.2848 0.0000
vn 0.7035 -0.1007 -0.7035
vn 0.9949 -0.1007 0.0000
vn 0.0000 -0.2848 0.9586
vn 0.7035 -0.1007 0.7035
vn -0.9586 -0.2848 0.0000
vn 0.0000 -0.6302 0.7764
vn 0.4203 -0.8042 0.4203
vn 0.5490 -0.6302 0.5490
vn 0.6778 -0.2848 0.6778
vn 0.6778 -0.2848 -0.6778
vn -0.5380 -0.6489 -0.5380
vn 0.0000 -0.7182 -0.6959
vn 0.0000 -0.6489 -0.7608
vn -0.4920 -0.7182 -0.4920
vn 0.0000 -0.2848 -0.9586
vn -0.6959 -0.7182 0.0000
vn -0.7608 -0.6489 0.0000
vn -0.4920 -0.7182 0.4920
vn -0.5380 -0.6489 0.5380
vn 0.0000 -0.7182 0.6959
vn 0.0000 -0.6489 0.7608
vn 0.5380 -0.6489 0.5380
vn 0.4920 -0.7182 0.4920
vn 0.6959 -0.7182 0.0000
vn 0.7608 -0.6489 0.0000
vn 0.5380 -0.6489 -0.5380
vn 0.4920 -0.7182 -0.4920
vn 0.7764 -0.6302 0.0000
vn -0.5490 -0.6302 0.5490
vn -0.5490 -0.6302 -0.5490
vn -0.7764 -0.6302 0.0000
vn 0.5490 -0.6302 -0.5490
vn 0.8514 0.5245 0.0000
vn 0.5943 -0.8042 0.0000
vn -0.4203 -0.8042 -0.4203
vn 0.0000 -0.8042 -0.5943
vn 0.0000 -0.6302 -0.7764
vn -0.5943 -0.8042 0.0000
vn 0.4203 -0.8042 -0.4203
vn -0.4203 -0.8042 0.4203
vn -0.9040 0.4276 0.0000
vn -0.6020 0.5245 0.6020
vn -0.8514 0.5245 0.0000
vn 0.0000 -0.8042 0.5943
vn 0.6020 0.5245 -0.6020
vn 0.0000 0.5245 0.8514
vn -0.6020 0.5245 -0.6020
vn 0.0000 0.5245 -0.8514
vn -0.5553 -0.6190 -0.5553
vn -0.6392 0.4276 -0.6392
vn 0.6392 0.4276 -0.6392
vn 0.6020 0.5245 0.6020
vn 0.9040 0.4276 0.0000
vn -0.6392 0.4276 0.6392
vn 0.0000 0.4276 -0.9040
vn 0.6392 0.4276 0.6392
vn 0.6530 0.3835 0.6530
vn 0.8854 0.4648 0.0000
vn 0.6261 0.4648 0.6261
vn 0.0000 -0.6190 -0.7854
vn -0.7853 -0.6190 0.0000
vn 0.7853 -0.6190 0.0000
vn 0.5553 -0.6190 0.5553
vn -0.5553 -0.6190 0.5553
vn 0.0000 0.4276 0.9040
vn 0.5553 -0.6190 -0.5553
vn 0.0000 -0.6190 0.7854
vn 0.0000 -0.2643 0.9644
vn 0.7039 0.0944 0.7039
vn 0.0000 0.0944 0.9955
vn -0.6819 -0.2643 0.6819
vn -0.7039 0.0944 0.7039
vn 0.0000 0.0944 -0.9955
vn -0.6819 -0.2643 -0.6819
vn -0.7039 0.0944 -0.7039
vn 0.3555 -0.8644 -0.3555
vn 0.0000 -0.6401 -0.7682
vn 0.5432 -0.6401 -0.5432
vn -0.9955 0.0944 0.0000
vn 0.7039 0.0944 -0.7039
vn 0.0000 -0.2643 -0.9644
vn 0.6819 -0.2643 0.6819
vn 0.9955 0.0944 0.0000
vn -0.9644 -0.2643 0.0000
vn -0.6261 0.4648 0.6261
vn 0.0000 0.3835 0.9235
vn 0.0000 0.4648 0.8854
vn 0.6530 0.3835 -0.6530
vn 0.0000 0.4648 -0.8854
vn 0.6261 0.4648 -0.6261
vn -0.6261 0.4648 -0.6261
vn -0.9235 0.3835 0.0000
vn -0.8854 0.4648 0.0000
vn -0.6530 0.3835 -0.6530
vn -0.6530 0.3835 0.6530
vn 0.9235 0.3835 0.0000
vn 0.5028 -0.8644 0.0000
vn 0.7682 -0.6401 0.0000
vn -0.3555 -0.8644 -0.3555
vn -0.5432 -0.6401 -0.5432
vn -0.5432 -0.6401 0.5432
vn 0.0000 -0.8644 0.5028
vn 0.0000 -0.6401 0.7682
vn -0.5028 -0.8644 0.0000
vn -0.7682 -0.6401 0.0000
vn 0.5432 -0.6401 0.5432
vn -0.3555 -0.8644 0.3555
vn 0.0000 0.3835 -0.9235
vn 0.6819 -0.2643 -0.6819
vn 0.9644 -0.2643 0.0000
vn 0.3555 -0.8644 0.3555
vn 0.0000 -1.0000 0.0000
vn 0.6586 -0.7525 0.0000
vn 0.6856 0.2447 -0.6856
vn 0.4657 -0.7525 -0.4657
vn -0.9696 0.2447 0.0000
vn -0.4657 -0.7525 0.4657
vn -0.6586 -0.7525 0.0000
vn 0.0000 0.2447 -0.9696
vn -0.4657 -0.7525 -0.4657
vn 0.0000 -0.7525 -0.6586
vn -0.6856 0.2447 -0.6856
vn 0.0000 -0.7525 0.6586
vn 0.6856 0.2447 0.6856
vn 0.4657 -0.7525 0.4657
vn -0.6856 0.2447 0.6856
vn 0.9696 0.2447 0.0000
vn 0.0000 0.2447 0.9696
vn 0.0000 -0.8644 -0.5028
s 1
f 26/1/1 5/2/2 4/3/3
f 20/4/4 3/5/5 2/6/6
f 1/7/7 20/4/4 2/6/6
f 35/8/8 8/9/9 7/10/10
f 29/11/11 6/12/12 5/2/2
f 23/13/13 4/3/3 3/5/5
f 12/14/14 43/15/15 11/16/16
f 32/17/17 7/10/10 6/12/12
f 38/18/18 1/7/7 8/9/9
f 21/19/19 19/20/20 17/21/21
f 22/22/22 18/23/23 19/20/20
f 25/24/24 21/19/19 24/25/25
f 23/13/13 22/22/22 25/24/24
f 28/26/26 24/25/25 27/27/27
f 26/1/1 25/24/24 28/26/26
f 31/28/28 27/27/27 30/29/29
f 29/11/11 28/26/26 31/28/28
f 33/30/30 31/28/28 30/29/29
f 34/31/31 29/11/11 31/28/28
f 37/32/32 33/30/30 36/33/33
f 35/8/8 34/31/31 37/32/32
f 39/34/34 37/32/32 36/33/33
f 40/35/35 35/8/8 37/32/32
f 19/20/20 39/34/34 17/21/21
f 18/23/23 40/35/35 19/20/20
f 10/36/36 39/34/34 36/33/33
f 13/37/37 30/29/29 27/27/27
f 12/14/14 33/30/30 30/29/29
f 17/21/21 16/38/38 21/19/19
f 21/19/19 14/39/39 24/25/25
f 11/16/16 36/33/33 33/30/30
f 9/40/40 17/21/21 39/34/34
f 14/39/39 27/27/27 24/25/25
f 43/15/15 50/41/41 42/42/42
f 48/43/43 14/39/39 16/38/38
f 47/44/44 16/38/38 15/45/45
f 46/46/46 13/37/37 14/39/39
f 11/16/16 42/42/42 10/36/36
f 10/36/36 41/47/47 9/40/40
f 45/48/48 12/14/14 13/37/37
f 41/47/47 15/45/45 9/40/40
f 62/49/49 53/50/50 54/51/51
f 53/50/50 44/52/52 45/48/48
f 49/53/53 47/44/44 41/47/47
f 52/54/54 43/15/15 44/52/52
f 56/55/55 46/46/46 48/43/43
f 55/56/56 48/43/43 47/44/44
f 54/51/51 45/48/48 46/46/46
f 50/41/41 41/47/47 42/42/42
f 128/57/57 62/49/49 64/58/58
f 50/41/41 57/59/59 49/53/53
f 51/60/60 58/61/61 50/41/41
f 61/62/62 52/54/54 53/50/50
f 49/53/53 63/63/63 55/56/56
f 52/54/54 59/64/64 51/60/60
f 64/58/58 54/51/51 56/55/55
f 63/63/63 56/55/55 55/56/56
f 77/65/65 113/66/66 116/67/67
f 127/68/68 64/58/58 63/63/63
f 126/69/69 61/62/62 62/49/49
f 122/70/70 57/59/59 58/61/61
f 123/71/71 58/61/61 59/64/64
f 125/72/72 60/73/73 61/62/62
f 121/74/74 63/63/63 57/59/59
f 124/75/75 59/64/64 60/73/73
f 96/76/76 78/77/77 79/78/78
f 97/79/79 79/78/78 82/80/80
f 86/81/81 103/82/82 88/83/83
f 106/84/84 102/85/85 90/86/86
f 103/82/82 83/87/87 88/83/83
f 74/88/88 101/89/89 86/81/81
f 93/90/90 75/91/91 78/77/77
f 100/92/92 82/80/80 83/87/87
f 118/93/93 80/94/94 117/95/95
f 73/96/96 134/97/97 129/98/98
f 80/94/94 116/67/67 117/95/95
f 120/99/99 84/100/100 119/101/101
f 134/97/97 87/102/102 120/99/99
f 119/101/101 81/103/103 118/93/93
f 76/104/104 129/98/98 113/66/66
f 105/105/105 90/86/86 91/106/106
f 102/85/85 108/107/107 104/108/108
f 98/109/109 111/110/110 95/111/111
f 104/108/108 109/112/112 99/113/113
f 111/110/110 94/114/114 95/111/111
f 99/113/113 110/115/115 98/109/109
f 73/96/96 75/91/91 74/88/88
f 77/65/65 79/78/78 78/77/77
f 81/103/103 83/87/87 82/80/80
f 86/81/81 73/96/96 74/88/88
f 88/83/83 85/116/116 86/81/81
f 80/94/94 82/80/80 79/78/78
f 83/87/87 87/102/102 88/83/83
f 76/104/104 78/77/77 75/91/91
f 89/117/117 91/106/106 90/86/86
f 93/90/90 95/111/111 94/114/114
f 98/109/109 100/92/92 99/113/113
f 101/89/89 90/86/86 102/85/85
f 103/82/82 102/85/85 104/108/108
f 96/76/76 98/109/109 95/111/111
f 99/113/113 103/82/82 104/108/108
f 92/118/118 94/114/114 91/106/106
f 75/91/91 89/117/117 74/88/88
f 112/119/119 137/120/120 105/105/105
f 94/114/114 105/105/105 91/106/106
f 66/121/121 114/122/122 65/123/123
f 132/124/124 69/125/125 70/126/126
f 115/127/127 72/128/128 71/129/129
f 133/130/130 70/126/126 72/128/128
f 68/131/131 135/132/132 67/133/133
f 65/123/123 115/127/127 71/129/129
f 131/134/134 68/131/131 69/125/125
f 67/133/133 130/135/135 66/121/121
f 121/74/74 66/121/121 65/123/123
f 123/71/71 68/131/131 67/133/133
f 69/125/125 126/69/69 70/126/126
f 127/68/68 65/123/123 71/129/129
f 72/128/128 127/68/68 71/129/129
f 68/131/131 125/72/72 69/125/125
f 70/126/126 128/57/57 72/128/128
f 122/70/70 67/133/133 66/121/121
f 130/135/135 129/98/98 114/122/122
f 119/101/101 131/134/134 132/124/124
f 134/97/97 133/130/130 115/127/127
f 120/99/99 132/124/124 133/130/130
f 136/136/136 116/67/67 135/132/132
f 114/122/122 134/97/97 115/127/127
f 118/93/93 136/136/136 131/134/134
f 135/132/132 113/66/66 130/135/135
f 111/110/110 137/120/120 112/119/119
f 109/112/112 137/120/120 110/115/115
f 107/137/137 137/120/120 108/107/107
f 105/105/105 137/120/120 106/84/84
f 110/115/115 137/120/120 111/110/110
f 108/107/107 137/120/120 109/112/112
f 106/84/84 137/120/120 107/137/137
f 26/1/1 29/11/11 5/2/2
f 20/4/4 23/13/13 3/5/5
f 1/7/7 18/23/23 20/4/4
f 35/8/8 38/18/18 8/9/9
f 29/11/11 32/17/17 6/12/12
f 23/13/13 26/1/1 4/3/3
f 12/14/14 44/52/52 43/15/15
f 32/17/17 35/8/8 7/10/10
f 38/18/18 18/23/23 1/7/7
f 21/19/19 22/22/22 19/20/20
f 22/22/22 20/4/4 18/23/23
f 25/24/24 22/22/22 21/19/19
f 23/13/13 20/4/4 22/22/22
f 28/26/26 25/24/24 24/25/25
f 26/1/1 23/13/13 25/24/24
f 31/28/28 28/26/26 27/27/27
f 29/11/11 26/1/1 28/26/26
f 33/30/30 34/31/31 31/28/28
f 34/31/31 32/17/17 29/11/11
f 37/32/32 34/31/31 33/30/30
f 35/8/8 32/17/17 34/31/31
f 39/34/34 40/35/35 37/32/32
f 40/35/35 38/18/18 35/8/8
f 19/20/20 40/35/35 39/34/34
f 18/23/23 38/18/18 40/35/35
f 10/36/36 9/40/40 39/34/34
f 13/37/37 12/14/14 30/29/29
f 12/14/14 11/16/16 33/30/30
f 17/21/21 15/45/45 16/38/38
f 21/19/19 16/38/38 14/39/39
f 11/16/16 10/36/36 36/33/33
f 9/40/40 15/45/45 17/21/21
f 14/39/39 13/37/37 27/27/27
f 43/15/15 51/60/60 50/41/41
f 48/43/43 46/46/46 14/39/39
f 47/44/44 48/43/43 16/38/38
f 46/46/46 45/48/48 13/37/37
f 11/16/16 43/15/15 42/42/42
f 10/36/36 42/42/42 41/47/47
f 45/48/48 44/52/52 12/14/14
f 41/47/47 47/44/44 15/45/45
f 62/49/49 61/62/62 53/50/50
f 53/50/50 52/54/54 44/52/52
f 49/53/53 55/56/56 47/44/44
f 52/54/54 51/60/60 43/15/15
f 56/55/55 54/51/51 46/46/46
f 55/56/56 56/55/55 48/43/43
f 54/51/51 53/50/50 45/48/48
f 50/41/41 49/53/53 41/47/47
f 128/57/57 126/69/69 62/49/49
f 50/41/41 58/61/61 57/59/59
f 51/60/60 59/64/64 58/61/61
f 61/62/62 60/73/73 52/54/54
f 49/53/53 57/59/59 63/63/63
f 52/54/54 60/73/73 59/64/64
f 64/58/58 62/49/49 54/51/51
f 63/63/63 64/58/58 56/55/55
f 77/65/65 76/104/104 113/66/66
f 127/68/68 128/57/57 64/58/58
f 126/69/69 125/72/72 61/62/62
f 122/70/70 121/74/74 57/59/59
f 123/71/71 122/70/70 58/61/61
f 125/72/72 124/75/75 60/73/73
f 121/74/74 127/68/68 63/63/63
f 124/75/75 123/71/71 59/64/64
f 96/76/76 93/90/90 78/77/77
f 97/79/79 96/76/76 79/78/78
f 86/81/81 101/89/89 103/82/82
f 106/84/84 107/137/137 102/85/85
f 103/82/82 100/92/92 83/87/87
f 74/88/88 89/117/117 101/89/89
f 93/90/90 92/118/118 75/91/91
f 100/92/92 97/79/79 82/80/80
f 118/93/93 81/103/103 80/94/94
f 73/96/96 85/116/116 134/97/97
f 80/94/94 77/65/65 116/67/67
f 120/99/99 87/102/102 84/100/100
f 134/97/97 85/116/116 87/102/102
f 119/101/101 84/100/100 81/103/103
f 76/104/104 73/96/96 129/98/98
f 105/105/105 106/84/84 90/86/86
f 102/85/85 107/137/137 108/107/107
f 98/109/109 110/115/115 111/110/110
f 104/108/108 108/107/107 109/112/112
f 111/110/110 112/119/119 94/114/114
f 99/113/113 109/112/112 110/115/115
f 73/96/96 76/104/104 75/91/91
f 77/65/65 80/94/94 79/78/78
f 81/103/103 84/100/100 83/87/87
f 86/81/81 85/116/116 73/96/96
f 88/83/83 87/102/102 85/116/116
f 80/94/94 81/103/103 82/80/80
f 83/87/87 84/100/100 87/102/102
f 76/104/104 77/65/65 78/77/77
f 89/117/117 92/118/118 91/106/106
f 93/90/90 96/76/76 95/111/111
f 98/109/109 97/79/79 100/92/92
f 101/89/89 89/117/117 90/86/86
f 103/82/82 101/89/89 102/85/85
f 96/76/76 97/79/79 98/109/109
f 99/113/113 100/92/92 103/82/82
f 92/118/118 93/90/90 94/114/114
f 75/91/91 92/118/118 89/117/117
f 94/114/114 112/119/119 105/105/105
f 66/121/121 130/135/135 114/122/122
f 132/124/124 131/134/134 69/125/125
f 115/127/127 133/130/130 72/128/128
f 133/130/130 132/124/124 70/126/126
f 68/131/131 136/136/136 135/132/132
f 65/123/123 114/122/122 115/127/127
f 131/134/134 136/136/136 68/131/131
f 67/133/133 135/132/132 130/135/135
f 121/74/74 122/70/70 66/121/121
f 123/71/71 124/75/75 68/131/131
f 69/125/125 125/72/72 126/69/69
f 127/68/68 121/74/74 65/123/123
f 72/128/128 128/57/57 127/68/68
f 68/131/131 124/75/75 125/72/72
f 70/126/126 126/69/69 128/57/57
f 122/70/70 123/71/71 67/133/133
f 130/135/135 113/66/66 129/98/98
f 119/101/101 118/93/93 131/134/134
f 134/97/97 120/99/99 133/130/130
f 120/99/99 119/101/101 132/124/124
f 136/136/136 117/95/95 116/67/67
f 114/122/122 129/98/98 134/97/97
f 118/93/93 117/95/95 136/136/136
f 135/132/132 116/67/67 113/66/66
