# Blender v2.82 (sub 7) OBJ File: 'GameScene.blend'
# www.blender.org
v 0.500000 2.500000 -6.000000
v -0.500000 4.500000 -6.000000
v 0.500000 4.500000 -6.000000
v -0.500000 2.500000 -6.000000
v -4.000000 2.000000 -0.500000
v -4.000000 0.000000 -0.500000
v -4.000000 2.000000 0.500000
v -4.000000 0.000000 0.500000
vt 0.280092 0.894416
vt 0.479144 0.496311
vt 0.280092 0.496311
vt 0.495316 0.400509
vt 0.694714 0.000000
vt 0.495316 0.000166
vt 0.479144 0.894416
vt 0.695488 0.400509
vn 0.0000 0.0000 1.0000
vn 1.0000 0.0000 0.0000
s off
f 3/1/1 4/2/1 1/3/1
f 5/4/2 8/5/2 6/6/2
f 3/1/1 2/7/1 4/2/1
f 5/4/2 7/8/2 8/5/2
