# Blender v2.82 (sub 7) OBJ File: 'GameScene.blend'
# www.blender.org
v -0.132297 0.011302 0.128966
v 0.015357 0.011302 0.128966
v -0.132297 0.011302 -0.091815
v -0.022199 0.011302 -0.091815
v 0.015357 0.011302 -0.048495
v -0.132297 -0.000403 0.128967
v 0.015357 -0.000403 0.128967
v -0.132297 -0.000403 -0.091815
v -0.022199 -0.000403 -0.091815
v 0.015357 -0.000403 -0.048495
v 0.015357 0.011302 -0.090472
v 0.015357 -0.000403 -0.090471
v 0.012795 0.006650 -0.046753
v 0.012795 0.006650 0.122515
v -0.128040 0.006650 0.122515
v -0.128040 0.006650 -0.088073
v -0.023026 0.006650 -0.088073
v 0.012796 0.006650 -0.086791
v 0.015978 0.003123 0.130531
v -0.133329 0.003123 -0.092722
v -0.021998 0.003123 -0.092722
v 0.015978 0.003123 -0.048917
v -0.133329 0.003123 0.130531
v 0.015978 0.003123 -0.091363
v -0.125709 0.000372 0.145954
v -0.132297 0.011302 0.128966
v 0.015357 0.011302 0.128966
v -0.132297 0.011302 -0.091815
v 0.006408 0.017517 -0.096907
v -0.002865 0.016028 -0.095962
v -0.007168 0.013867 -0.093772
v -0.012433 0.011600 -0.093025
v -0.022199 0.011302 -0.091815
v 0.015357 0.011302 -0.048495
v 0.015597 0.011600 -0.053315
v 0.016561 0.013867 -0.070669
v 0.015326 0.016651 -0.078446
vt 0.803790 0.084344
vt 0.000000 0.084344
vt 0.803790 0.084344
vt 1.000000 0.915656
vt 0.000000 0.915656
vt 0.000000 0.915656
vt 1.000000 0.295787
vt 1.000000 0.915656
vt 0.000000 0.084344
vt 0.803790 0.084344
vt 0.803790 0.084344
vt 1.000000 0.295787
vt 1.000000 0.295787
vt 0.803790 0.084344
vt 0.803790 0.084344
vt 0.803790 0.084344
vt 1.000000 0.295787
vt 0.000000 0.084344
vt 0.000000 0.915656
vt 0.000000 0.084344
vt 1.000000 0.915656
vt 1.000000 0.915656
vt 0.000000 0.915656
vt 0.803790 0.084344
vt 0.000000 0.000000
vt 0.803790 0.084344
vt 1.000000 0.295787
vt 1.000000 0.915656
vt 0.820138 0.084344
vt 1.000000 0.242157
vt 0.891008 0.084344
vt 1.000000 0.223496
vt 0.902935 0.084344
vt 1.000000 0.192498
vt 1.000000 0.084344
vt 0.000000 0.915656
vt 0.000000 0.084344
vn 0.9848 -0.1735 0.0000
vn -0.9597 -0.2809 0.0000
vn 0.0000 -0.2492 -0.9685
vn 0.0000 -0.4056 0.9140
vn 0.0346 -0.2509 -0.9674
vn 0.0000 1.0000 -0.0000
vn 0.0278 -0.6295 -0.7765
vn 0.8760 -0.4823 0.0000
vn 0.0000 -0.8111 0.5849
vn 0.0000 -0.6268 -0.7792
vn -0.7378 -0.6750 0.0000
vn 0.0215 0.7989 -0.6011
vn 0.7423 0.6700 0.0000
vn 0.0000 0.9154 0.4026
vn 0.0000 0.7968 -0.6043
vn -0.5548 0.8320 0.0000
vn 0.0000 0.9845 0.1756
vn -0.0280 0.9994 0.0198
vn -0.3308 0.8804 0.3398
vn -0.3086 0.9064 0.2883
vn -0.1459 0.9824 0.1166
vn -0.0672 0.9960 0.0582
vn -0.1679 0.9787 0.1185
vn -0.3550 0.8608 0.3647
s off
f 22/1/1 7/2/1 10/3/1
f 20/4/2 6/5/2 23/6/2
f 21/7/3 8/8/3 20/4/3
f 19/9/4 6/5/4 7/2/4
f 22/1/1 12/10/1 24/11/1
f 21/7/5 12/10/5 9/12/5
f 4/13/6 5/14/6 11/15/6
f 4/13/7 18/16/7 17/17/7
f 5/14/8 18/16/8 11/15/8
f 2/18/9 15/19/9 14/20/9
f 4/13/10 16/21/10 3/22/10
f 3/22/11 15/19/11 1/23/11
f 5/14/8 14/20/8 13/24/8
f 18/16/12 21/7/12 17/17/12
f 22/1/13 18/16/13 13/24/13
f 15/19/14 19/9/14 14/20/14
f 16/21/15 21/7/15 20/4/15
f 15/19/16 20/4/16 23/6/16
f 14/20/13 22/1/13 13/24/13
f 25/25/17 19/9/17 23/6/17
f 34/26/6 33/27/6 28/28/6
f 33/27/18 35/29/18 32/30/18
f 32/30/19 36/31/19 31/32/19
f 31/32/20 37/33/20 30/34/20
f 30/34/21 37/33/21 29/35/21
f 22/1/1 19/9/1 7/2/1
f 20/4/2 8/8/2 6/5/2
f 21/7/3 9/12/3 8/8/3
f 19/9/4 23/6/4 6/5/4
f 22/1/1 10/3/1 12/10/1
f 21/7/5 24/11/5 12/10/5
f 4/13/7 11/15/7 18/16/7
f 5/14/8 13/24/8 18/16/8
f 2/18/9 1/23/9 15/19/9
f 4/13/10 17/17/10 16/21/10
f 3/22/11 16/21/11 15/19/11
f 5/14/8 2/18/8 14/20/8
f 18/16/12 24/11/12 21/7/12
f 22/1/13 24/11/13 18/16/13
f 15/19/14 23/6/14 19/9/14
f 16/21/15 17/17/15 21/7/15
f 15/19/16 16/21/16 20/4/16
f 14/20/13 19/9/13 22/1/13
f 28/28/6 26/36/6 34/26/6
f 26/36/6 27/37/6 34/26/6
f 33/27/22 34/26/22 35/29/22
f 32/30/23 35/29/23 36/31/23
f 31/32/24 36/31/24 37/33/24
