# Blender v2.82 (sub 7) OBJ File: 'GameScene.blend'
# www.blender.org
v -0.400000 0.800000 -0.400000
v -0.400000 0.800000 0.400000
v 0.400000 0.800000 -0.400000
v 0.400000 0.800000 0.400000
v -0.400000 0.850000 -0.400000
v -0.400000 0.850000 0.400000
v 0.400000 0.850000 -0.400000
v 0.400000 0.850000 0.400000
v -0.420000 0.050000 -0.420000
v -0.420000 0.050000 0.420000
v 0.420000 0.050000 -0.420000
v 0.420000 0.050000 0.420000
v -0.420000 0.000000 -0.420000
v -0.420000 0.000000 0.420000
v 0.420000 0.000000 -0.420000
v 0.420000 0.000000 0.420000
v -0.171429 0.850000 -0.200000
v -0.200000 0.850000 -0.171429
v -0.220203 0.850000 -0.220203
v -0.200000 0.850000 0.171429
v -0.171429 0.850000 0.200000
v -0.220203 0.850000 0.220203
v 0.200000 0.850000 -0.171429
v 0.171429 0.850000 -0.200000
v 0.220203 0.850000 -0.220203
v 0.171429 0.850000 0.200000
v 0.200000 0.850000 0.171429
v 0.220203 0.850000 0.220203
v -0.200000 0.100000 -0.171429
v -0.171429 0.100000 -0.200000
v -0.219947 0.095467 -0.219947
v -0.171429 0.100000 0.200000
v -0.200000 0.100000 0.171429
v -0.219947 0.095467 0.219947
v 0.171429 0.100000 -0.200000
v 0.200000 0.100000 -0.171429
v 0.219947 0.095467 -0.219947
v 0.200000 0.100000 0.171429
v 0.171429 0.100000 0.200000
v 0.219947 0.095467 0.219947
v -0.416883 0.950000 -0.450000
v -0.450000 0.950000 -0.416883
v -0.473417 0.950000 -0.473417
v 0.450000 0.950000 -0.416883
v 0.416883 0.950000 -0.450000
v 0.473417 0.950000 -0.473417
v 0.416883 0.950000 0.450000
v 0.450000 0.950000 0.416883
v 0.473417 0.950000 0.473417
v -0.450000 0.950000 0.416883
v -0.416883 0.950000 0.450000
v -0.473417 0.950000 0.473417
v -0.450000 0.800000 -0.416883
v -0.416883 0.800000 -0.450000
v -0.426583 0.800000 -0.426583
v -0.416883 0.800000 0.450000
v -0.450000 0.800000 0.416883
v -0.426583 0.800000 0.426583
v 0.416883 0.800000 -0.450000
v 0.450000 0.800000 -0.416883
v 0.426583 0.800000 -0.426583
v 0.450000 0.800000 0.416883
v 0.416883 0.800000 0.450000
v 0.426583 0.800000 0.426583
v -0.459232 0.950000 0.500000
v -0.500000 0.950000 0.459232
v -0.473452 0.950000 0.473452
v -0.474833 0.950000 0.496897
v -0.488059 0.950000 0.488059
v -0.496897 0.950000 0.474833
v -0.500000 0.950000 -0.459232
v -0.459232 0.950000 -0.500000
v -0.473452 0.950000 -0.473452
v -0.496897 0.950000 -0.474833
v -0.488059 0.950000 -0.488059
v -0.474833 0.950000 -0.496897
v 0.459232 0.950000 -0.500000
v 0.500000 0.950000 -0.459232
v 0.473452 0.950000 -0.473452
v 0.474833 0.950000 -0.496897
v 0.488059 0.950000 -0.488059
v 0.496897 0.950000 -0.474833
v 0.500000 0.950000 0.459232
v 0.459232 0.950000 0.500000
v 0.473452 0.950000 0.473452
v 0.496897 0.950000 0.474833
v 0.488059 0.950000 0.488059
v 0.474833 0.950000 0.496897
v -0.500000 0.975000 0.459232
v -0.459232 0.975000 0.500000
v -0.487535 0.975312 0.487535
v -0.496897 0.975000 0.474833
v -0.488059 0.975000 0.488059
v -0.474833 0.975000 0.496897
v -0.459232 0.975000 -0.500000
v -0.500000 0.975000 -0.459232
v -0.487535 0.975312 -0.487535
v -0.474833 0.975000 -0.496897
v -0.488059 0.975000 -0.488059
v -0.496897 0.975000 -0.474833
v 0.500000 0.975000 -0.459232
v 0.459232 0.975000 -0.500000
v 0.487535 0.975312 -0.487535
v 0.496897 0.975000 -0.474833
v 0.488059 0.975000 -0.488059
v 0.474833 0.975000 -0.496897
v 0.459232 0.975000 0.500000
v 0.500000 0.975000 0.459232
v 0.487535 0.975312 0.487535
v 0.474833 0.975000 0.496897
v 0.488059 0.975000 0.488059
v 0.496897 0.975000 0.474833
v -0.446732 0.975313 0.487500
v -0.487500 0.975313 0.446732
v -0.484181 0.975001 0.484181
v -0.462333 0.975313 0.484397
v -0.475559 0.975313 0.475559
v -0.484397 0.975313 0.462333
v -0.487500 0.999687 0.446732
v -0.446732 0.999687 0.487500
v -0.484397 0.999687 0.462333
v -0.475559 0.999687 0.475559
v -0.462333 0.999687 0.484397
v -0.446732 0.999687 -0.487500
v -0.487500 0.999687 -0.446732
v -0.462333 0.999687 -0.484397
v -0.475559 0.999687 -0.475559
v -0.484397 0.999687 -0.462333
v 0.487500 0.999687 -0.446732
v 0.446732 0.999687 -0.487500
v 0.484397 0.999687 -0.462333
v 0.475559 0.999687 -0.475559
v 0.462333 0.999687 -0.484397
v 0.446732 0.999687 0.487500
v 0.487500 0.999687 0.446732
v 0.462333 0.999687 0.484397
v 0.475559 0.999687 0.475559
v 0.484397 0.999687 0.462333
v -0.487500 0.975313 -0.446732
v -0.446732 0.975313 -0.487500
v -0.484181 0.975001 -0.484181
v -0.484397 0.975313 -0.462333
v -0.475559 0.975313 -0.475559
v -0.462333 0.975313 -0.484397
v 0.446732 0.975313 -0.487500
v 0.487500 0.975313 -0.446732
v 0.484181 0.975001 -0.484181
v 0.462333 0.975313 -0.484397
v 0.475559 0.975313 -0.475559
v 0.484397 0.975313 -0.462333
v 0.487500 0.975313 0.446732
v 0.446732 0.975313 0.487500
v 0.484181 0.975001 0.484181
v 0.484397 0.975313 0.462333
v 0.475559 0.975313 0.475559
v 0.462333 0.975313 0.484397
vt 0.209051 0.785195
vt 0.226986 0.852008
vt 0.212328 0.814420
vt 0.240398 0.461877
vt 0.216275 0.469841
vt 0.209848 0.465800
vt 0.260321 0.435188
vt 0.073083 0.183468
vt 0.242995 0.460750
vt 0.061453 0.141193
vt 0.067413 0.166199
vt 0.171123 0.839769
vt 0.179451 0.489921
vt 0.170984 0.735655
vt 0.029889 0.528319
vt 0.054003 0.519853
vt 0.060500 0.524612
vt 0.168283 0.474797
vt 0.103025 0.266103
vt 0.180131 0.482089
vt 0.107482 0.155135
vt 0.089473 0.512115
vt 0.108795 0.253899
vt 0.117099 0.337737
vt 0.152230 0.489235
vt 0.166774 0.486580
vt 0.027126 0.101643
vt 0.090588 0.509235
vt 0.054128 0.000052
vt 0.180051 0.482449
vt 0.186322 0.481333
vt 0.104079 0.520704
vt 0.176982 0.722990
vt 0.090522 0.518775
vt 0.102760 0.516381
vt 0.162327 0.650010
vt 0.155088 0.426621
vt 0.195471 0.479289
vt 0.175534 0.475827
vt 0.116948 0.514451
vt 0.148738 0.568586
vt 0.130749 0.418092
vt 0.145636 0.496768
vt 0.152768 0.449132
vt 0.140483 0.486486
vt 0.136425 0.470498
vt 0.132697 0.517596
vt 0.142293 0.486610
vt 0.137550 0.495416
vt 0.106887 0.488172
vt 0.145719 0.512026
vt 0.131314 0.540445
vt 0.085667 0.484630
vt 0.149779 0.466766
vt 0.077310 0.484186
vt 0.203451 0.479556
vt 0.131299 0.548811
vt 0.155520 0.418368
vt 0.144170 0.485599
vt 0.138235 0.458662
vt 0.129606 0.419094
vt 0.149794 0.517211
vt 0.140300 0.489687
vt 0.155311 0.446817
vt 0.153590 0.444532
vt 0.174707 0.479175
vt 0.178657 0.477903
vt 0.107441 0.485196
vt 0.103569 0.486304
vt 0.130393 0.519454
vt 0.131992 0.521988
vt 0.100347 0.493633
vt 0.091297 0.509622
vt 0.199921 0.788820
vt 0.217806 0.875223
vt 0.169952 0.499577
vt 0.078701 0.202657
vt 0.062627 0.118302
vt 0.091378 0.515565
vt 0.107403 0.269389
vt 0.172439 0.719874
vt 0.178298 0.486096
vt 0.259652 0.907616
vt 0.179998 0.481758
vt 0.226378 0.999948
vt 0.086331 0.510728
vt 0.054869 0.513408
vt 0.214529 0.825579
vt 0.000052 0.519774
vt 0.269503 0.470395
vt 0.256788 0.801389
vt 0.269503 0.851847
vt 0.056683 0.231528
vt 0.026790 0.168359
vt 0.008936 0.548910
vt 0.028704 0.525611
vt 0.064178 0.163321
vt 0.066824 0.138816
vt 0.082634 0.115873
vt 0.064634 0.113431
vt 0.062104 0.077175
vt 0.080103 0.511687
vt 0.085317 0.510227
vt 0.077445 0.512337
vt 0.078078 0.511890
vt 0.214529 0.851784
vt 0.197295 0.878034
vt 0.218026 0.880232
vt 0.220360 0.919920
vt 0.190526 0.479333
vt 0.185749 0.481690
vt 0.193560 0.478734
vt 0.193485 0.479366
vt 0.044196 0.108240
vt 0.057713 0.132706
vt 0.052742 0.128919
vt 0.058243 0.145992
vt 0.062988 0.515855
vt 0.060829 0.518102
vt 0.064406 0.517215
vt 0.065831 0.518818
vt 0.243494 0.892299
vt 0.229985 0.860622
vt 0.234935 0.864382
vt 0.226388 0.841478
vt 0.217427 0.475668
vt 0.208342 0.473926
vt 0.209696 0.471883
vt 0.206295 0.472881
vt 0.204634 0.471556
vt 0.072719 0.172011
vt 0.060948 0.162191
vt 0.044879 0.164140
vt 0.034688 0.528335
vt 0.038932 0.524314
vt 0.033088 0.523334
vt 0.213120 0.808907
vt 0.230581 0.831074
vt 0.248008 0.843528
vt 0.235272 0.461046
vt 0.231220 0.464559
vt 0.237878 0.464452
vt 0.071325 0.202008
vt 0.067369 0.194279
vt 0.064330 0.193761
vt 0.060762 0.205552
vt 0.020194 0.538030
vt 0.019771 0.530791
vt 0.016039 0.524367
vt 0.249033 0.805826
vt 0.241075 0.797953
vt 0.230801 0.778348
vt 0.218187 0.750181
vt 0.248866 0.448189
vt 0.249400 0.456900
vt 0.253107 0.464591
vn 0.0097 0.9998 -0.0153
vn 0.0153 0.9998 0.0097
vn 0.0000 0.0000 1.0000
vn -0.0097 0.9998 0.0153
vn 1.0000 0.0000 0.0000
vn -0.0153 0.9998 -0.0097
vn -1.0000 0.0000 0.0000
vn 0.0000 0.0000 -1.0000
vn 0.0000 -1.0000 0.0000
vn -0.2216 0.9751 0.0000
vn 0.2216 0.9751 0.0000
vn 0.0000 0.9751 0.2216
vn 0.0000 0.9751 -0.2216
vn -0.0659 0.9956 -0.0659
vn -0.0659 0.9956 0.0659
vn 0.0659 0.9956 -0.0659
vn 0.0659 0.9956 0.0659
vn 0.7071 0.0000 0.7071
vn 0.7071 0.0000 -0.7071
vn -0.7071 0.0000 -0.7071
vn -0.7071 0.0000 0.7071
vn 0.0000 1.0000 0.0000
vn -0.0455 0.9989 0.0091
vn -0.3277 0.9190 0.2190
vn -0.2189 0.9191 0.3277
vn -0.0091 0.9989 0.0455
vn -0.0091 0.9989 -0.0455
vn -0.2189 0.9190 -0.3278
vn -0.3277 0.9190 -0.2190
vn -0.0455 0.9989 -0.0091
vn 0.0455 0.9989 -0.0091
vn 0.3277 0.9190 -0.2190
vn 0.2189 0.9191 -0.3277
vn 0.0091 0.9989 -0.0455
vn 0.0091 0.9989 0.0455
vn 0.2189 0.9190 0.3278
vn 0.3277 0.9190 0.2190
vn 0.0455 0.9989 0.0091
vn -0.0150 0.9970 0.0753
vn -0.0145 0.9997 0.0217
vn -0.0217 0.9997 0.0145
vn -0.0752 0.9971 0.0150
vn -0.0752 0.9971 -0.0150
vn -0.0217 0.9997 -0.0145
vn -0.0145 0.9997 -0.0217
vn -0.0150 0.9970 -0.0753
vn 0.0150 0.9970 -0.0753
vn 0.0145 0.9997 -0.0217
vn 0.0217 0.9997 -0.0145
vn 0.0752 0.9971 -0.0150
vn 0.0752 0.9971 0.0150
vn 0.0217 0.9997 0.0145
vn 0.0145 0.9997 0.0217
vn 0.0150 0.9970 0.0753
vn -0.1951 0.0000 -0.9808
vn -0.5556 0.0000 -0.8315
vn -0.8315 0.0000 -0.5556
vn -0.9808 0.0000 -0.1951
vn 0.9808 0.0000 -0.1951
vn 0.8315 0.0000 -0.5556
vn 0.5556 0.0000 -0.8315
vn 0.1951 0.0000 -0.9808
vn 0.1951 0.0000 0.9808
vn 0.5556 0.0000 0.8315
vn 0.8315 0.0000 0.5556
vn 0.9808 0.0000 0.1951
vn -0.1951 0.0000 0.9808
vn -0.5556 0.0000 0.8315
vn -0.8315 0.0000 0.5556
vn -0.9808 0.0000 0.1951
vn -0.0359 0.9978 0.0565
vn 0.0000 0.9997 -0.0250
vn 0.0359 0.9978 0.0565
vn -0.0097 0.9998 -0.0153
vn -0.0565 0.9978 -0.0359
vn 0.0250 0.9997 0.0000
vn -0.0565 0.9978 0.0359
vn 0.0153 0.9998 -0.0097
vn 0.0359 0.9978 -0.0565
vn 0.0000 0.9997 0.0250
vn -0.0359 0.9978 -0.0565
vn 0.0097 0.9998 0.0153
vn 0.0565 0.9978 0.0359
vn -0.0250 0.9997 0.0000
vn 0.0565 0.9978 -0.0359
vn -0.0153 0.9998 0.0097
vn 0.0000 -1.0000 -0.0005
vn 0.0000 -1.0000 -0.0026
vn 0.0000 -1.0000 0.0021
vn 0.0000 -1.0000 0.0026
vn 0.0000 -1.0000 -0.0021
vn 0.0000 -1.0000 0.0005
s off
f 145/1/1 147/2/1 102/3/1
f 151/4/2 153/5/2 108/6/2
f 134/7/3 113/8/3 152/9/3
f 113/8/4 115/10/4 90/11/4
f 44/12/5 62/13/5 60/14/5
f 139/15/6 141/16/6 96/17/6
f 47/18/3 56/19/3 63/20/3
f 50/21/7 53/22/7 57/23/7
f 2/24/8 8/25/8 4/26/8
f 57/23/9 53/22/9 2/24/9
f 89/27/7 71/28/7 66/29/7
f 47/18/9 49/30/9 84/31/9
f 41/32/8 59/33/8 54/34/8
f 54/34/9 59/33/9 1/35/9
f 63/20/9 56/19/9 4/26/9
f 60/14/9 62/13/9 3/36/9
f 9/37/10 10/38/10 33/39/10
f 3/36/3 5/40/3 1/35/3
f 4/26/7 7/41/7 3/36/7
f 1/35/5 6/42/5 2/24/5
f 24/43/8 30/44/8 17/45/8
f 21/46/3 39/47/3 26/48/3
f 27/49/5 36/50/5 23/51/5
f 7/41/9 8/25/9 27/49/9
f 12/52/11 11/53/11 36/50/11
f 6/42/9 5/40/9 18/54/9
f 8/25/9 6/42/9 21/46/9
f 5/40/9 7/41/9 24/43/9
f 12/52/5 15/55/5 11/53/5
f 10/38/12 12/52/12 39/47/12
f 11/53/13 9/37/13 30/44/13
f 9/37/7 14/56/7 10/38/7
f 10/38/3 16/57/3 12/52/3
f 11/53/8 13/58/8 9/37/8
f 17/45/9 18/54/9 19/59/9
f 20/60/9 21/46/9 22/61/9
f 23/51/9 24/43/9 25/62/9
f 26/48/9 27/49/9 28/63/9
f 29/64/14 30/44/14 31/65/14
f 32/66/15 33/39/15 34/67/15
f 35/68/16 36/50/16 37/69/16
f 38/70/17 39/47/17 40/71/17
f 39/47/18 27/49/18 26/48/18
f 24/43/19 36/50/19 35/68/19
f 30/44/20 18/54/20 17/45/20
f 21/46/21 33/39/21 32/66/21
f 18/54/7 33/39/7 20/60/7
f 41/32/9 42/72/9 43/73/9
f 44/12/9 45/74/9 46/75/9
f 47/18/9 48/76/9 49/30/9
f 50/21/9 51/77/9 52/78/9
f 53/22/9 54/34/9 55/79/9
f 56/19/9 57/23/9 58/80/9
f 59/33/9 60/14/9 61/81/9
f 62/13/9 63/20/9 64/82/9
f 54/34/20 42/72/20 41/32/20
f 60/14/19 45/74/19 44/12/19
f 63/20/18 48/76/18 47/18/18
f 51/77/21 57/23/21 56/19/21
f 101/83/5 83/84/5 78/85/5
f 50/21/9 52/78/9 66/29/9
f 44/12/9 46/75/9 78/85/9
f 41/32/9 43/73/9 72/86/9
f 95/87/8 77/88/8 72/86/8
f 125/89/22 134/7/22 135/90/22
f 129/91/5 151/4/5 146/92/5
f 119/93/7 139/15/7 114/94/7
f 124/95/8 145/1/8 140/96/8
f 65/97/9 68/98/9 67/99/9
f 68/98/9 69/100/9 67/99/9
f 69/100/9 70/101/9 67/99/9
f 70/101/9 66/29/9 67/99/9
f 71/28/9 74/102/9 73/103/9
f 74/102/9 75/104/9 73/103/9
f 75/104/9 76/105/9 73/103/9
f 76/105/9 72/86/9 73/103/9
f 77/88/9 80/106/9 79/107/9
f 80/106/9 81/108/9 79/107/9
f 81/108/9 82/109/9 79/107/9
f 82/109/9 78/85/9 79/107/9
f 83/84/9 86/110/9 85/111/9
f 86/110/9 87/112/9 85/111/9
f 87/112/9 88/113/9 85/111/9
f 88/113/9 84/31/9 85/111/9
f 89/27/23 92/114/23 91/115/23
f 92/114/24 93/116/24 91/115/24
f 93/116/25 94/117/25 91/115/25
f 94/117/26 90/11/26 91/115/26
f 95/87/27 98/118/27 97/119/27
f 98/118/28 99/120/28 97/119/28
f 99/120/29 100/121/29 97/119/29
f 100/121/30 96/17/30 97/119/30
f 101/83/31 104/122/31 103/123/31
f 104/122/32 105/124/32 103/123/32
f 105/124/33 106/125/33 103/123/33
f 106/125/34 102/3/34 103/123/34
f 107/126/35 110/127/35 109/128/35
f 110/127/36 111/129/36 109/128/36
f 111/129/37 112/130/37 109/128/37
f 112/130/38 108/6/38 109/128/38
f 113/8/39 116/131/39 115/10/39
f 116/131/40 117/132/40 115/10/40
f 117/132/41 118/133/41 115/10/41
f 118/133/42 114/94/42 115/10/42
f 139/15/43 142/134/43 141/16/43
f 142/134/44 143/135/44 141/16/44
f 143/135/45 144/136/45 141/16/45
f 144/136/46 140/96/46 141/16/46
f 145/1/47 148/137/47 147/2/47
f 148/137/48 149/138/48 147/2/48
f 149/138/49 150/139/49 147/2/49
f 150/139/50 146/92/50 147/2/50
f 151/4/51 154/140/51 153/5/51
f 154/140/52 155/141/52 153/5/52
f 155/141/53 156/142/53 153/5/53
f 156/142/54 152/9/54 153/5/54
f 72/86/55 98/118/55 95/87/55
f 76/105/56 99/120/56 98/118/56
f 75/104/57 100/121/57 99/120/57
f 74/102/58 96/17/58 100/121/58
f 78/85/59 104/122/59 101/83/59
f 82/109/60 105/124/60 104/122/60
f 81/108/61 106/125/61 105/124/61
f 80/106/62 102/3/62 106/125/62
f 84/31/63 110/127/63 107/126/63
f 88/113/64 111/129/64 110/127/64
f 87/112/65 112/130/65 111/129/65
f 86/110/66 108/6/66 112/130/66
f 90/11/67 68/98/67 65/97/67
f 94/117/68 69/100/68 68/98/68
f 93/116/69 70/101/69 69/100/69
f 92/114/70 66/29/70 70/101/70
f 120/143/67 116/131/67 113/8/67
f 123/144/68 117/132/68 116/131/68
f 122/145/69 118/133/69 117/132/69
f 121/146/70 114/94/70 118/133/70
f 140/96/55 126/147/55 124/95/55
f 144/136/56 127/148/56 126/147/56
f 143/135/57 128/149/57 127/148/57
f 142/134/58 125/89/58 128/149/58
f 146/92/59 131/150/59 129/91/59
f 150/139/60 132/151/60 131/150/60
f 149/138/61 133/152/61 132/151/61
f 148/137/62 130/153/62 133/152/62
f 152/9/63 136/154/63 134/7/63
f 156/142/64 137/155/64 136/154/64
f 155/141/65 138/156/65 137/155/65
f 154/140/66 135/90/66 138/156/66
f 107/126/3 65/97/3 84/31/3
f 147/2/71 103/123/71 102/3/71
f 102/3/72 95/87/72 145/1/72
f 95/87/73 97/119/73 141/16/73
f 145/1/72 95/87/72 140/96/72
f 141/16/74 140/96/74 95/87/74
f 153/5/75 109/128/75 108/6/75
f 108/6/76 101/83/76 151/4/76
f 101/83/77 103/123/77 147/2/77
f 151/4/76 101/83/76 146/92/76
f 147/2/78 146/92/78 101/83/78
f 134/7/3 120/143/3 113/8/3
f 115/10/79 91/115/79 90/11/79
f 90/11/80 107/126/80 113/8/80
f 107/126/81 109/128/81 153/5/81
f 113/8/80 107/126/80 152/9/80
f 153/5/82 152/9/82 107/126/82
f 44/12/5 48/76/5 62/13/5
f 141/16/83 97/119/83 96/17/83
f 96/17/84 89/27/84 139/15/84
f 89/27/85 91/115/85 115/10/85
f 139/15/84 89/27/84 114/94/84
f 115/10/86 114/94/86 89/27/86
f 47/18/3 51/77/3 56/19/3
f 50/21/7 42/72/7 53/22/7
f 2/24/8 6/42/8 8/25/8
f 55/79/9 1/35/9 53/22/9
f 1/35/9 2/24/9 53/22/9
f 2/24/9 58/80/9 57/23/9
f 89/27/7 96/17/7 71/28/7
f 49/30/9 85/111/9 84/31/9
f 84/31/9 65/97/9 51/77/9
f 65/97/87 67/99/87 52/78/87
f 51/77/9 65/97/9 52/78/9
f 51/77/9 47/18/9 84/31/9
f 41/32/8 45/74/8 59/33/8
f 61/81/9 3/36/9 59/33/9
f 3/36/9 1/35/9 59/33/9
f 1/35/9 55/79/9 54/34/9
f 58/80/9 2/24/9 56/19/9
f 2/24/9 4/26/9 56/19/9
f 4/26/9 64/82/9 63/20/9
f 64/82/9 4/26/9 62/13/9
f 4/26/9 3/36/9 62/13/9
f 3/36/9 61/81/9 60/14/9
f 10/38/10 34/67/10 33/39/10
f 33/39/10 29/64/10 9/37/10
f 29/64/10 31/65/10 9/37/10
f 3/36/3 7/41/3 5/40/3
f 4/26/7 8/25/7 7/41/7
f 1/35/5 5/40/5 6/42/5
f 24/43/8 35/68/8 30/44/8
f 21/46/3 32/66/3 39/47/3
f 27/49/5 38/70/5 36/50/5
f 8/25/9 28/63/9 27/49/9
f 27/49/9 23/51/9 7/41/9
f 23/51/9 25/62/9 7/41/9
f 11/53/11 37/69/11 36/50/11
f 36/50/11 38/70/11 12/52/11
f 38/70/11 40/71/11 12/52/11
f 5/40/9 19/59/9 18/54/9
f 18/54/9 20/60/9 6/42/9
f 20/60/9 22/61/9 6/42/9
f 6/42/9 22/61/9 21/46/9
f 21/46/9 26/48/9 8/25/9
f 26/48/9 28/63/9 8/25/9
f 7/41/9 25/62/9 24/43/9
f 24/43/9 17/45/9 5/40/9
f 17/45/9 19/59/9 5/40/9
f 12/52/5 16/57/5 15/55/5
f 12/52/12 40/71/12 39/47/12
f 39/47/12 32/66/12 10/38/12
f 32/66/12 34/67/12 10/38/12
f 9/37/13 31/65/13 30/44/13
f 30/44/13 35/68/13 11/53/13
f 35/68/13 37/69/13 11/53/13
f 9/37/7 13/58/7 14/56/7
f 10/38/3 14/56/3 16/57/3
f 11/53/8 15/55/8 13/58/8
f 39/47/18 38/70/18 27/49/18
f 24/43/19 23/51/19 36/50/19
f 30/44/20 29/64/20 18/54/20
f 21/46/21 20/60/21 33/39/21
f 18/54/7 29/64/7 33/39/7
f 54/34/20 53/22/20 42/72/20
f 60/14/19 59/33/19 45/74/19
f 63/20/18 62/13/18 48/76/18
f 51/77/21 50/21/21 57/23/21
f 101/83/5 108/6/5 83/84/5
f 52/78/88 67/99/88 66/29/88
f 66/29/9 71/28/9 42/72/9
f 71/28/89 73/103/89 43/73/89
f 42/72/9 71/28/9 43/73/9
f 42/72/9 50/21/9 66/29/9
f 46/75/90 79/107/90 78/85/90
f 78/85/9 83/84/9 48/76/9
f 83/84/91 85/111/91 49/30/91
f 48/76/9 83/84/9 49/30/9
f 48/76/9 44/12/9 78/85/9
f 43/73/9 73/103/9 72/86/9
f 72/86/9 77/88/9 45/74/9
f 77/88/92 79/107/92 46/75/92
f 45/74/9 77/88/9 46/75/9
f 45/74/9 41/32/9 72/86/9
f 95/87/8 102/3/8 77/88/8
f 135/90/22 129/91/22 130/153/22
f 129/91/22 131/150/22 133/152/22
f 131/150/22 132/151/22 133/152/22
f 133/152/22 130/153/22 129/91/22
f 130/153/22 124/95/22 135/90/22
f 124/95/22 126/147/22 127/148/22
f 127/148/22 128/149/22 125/89/22
f 125/89/22 119/93/22 134/7/22
f 119/93/22 121/146/22 120/143/22
f 134/7/22 119/93/22 120/143/22
f 121/146/22 122/145/22 123/144/22
f 123/144/22 120/143/22 121/146/22
f 134/7/22 136/154/22 137/155/22
f 137/155/22 138/156/22 135/90/22
f 124/95/22 127/148/22 125/89/22
f 135/90/22 124/95/22 125/89/22
f 134/7/22 137/155/22 135/90/22
f 129/91/5 135/90/5 151/4/5
f 119/93/7 125/89/7 139/15/7
f 124/95/8 130/153/8 145/1/8
f 72/86/55 76/105/55 98/118/55
f 76/105/56 75/104/56 99/120/56
f 75/104/57 74/102/57 100/121/57
f 74/102/58 71/28/58 96/17/58
f 78/85/59 82/109/59 104/122/59
f 82/109/60 81/108/60 105/124/60
f 81/108/61 80/106/61 106/125/61
f 80/106/62 77/88/62 102/3/62
f 84/31/63 88/113/63 110/127/63
f 88/113/64 87/112/64 111/129/64
f 87/112/65 86/110/65 112/130/65
f 86/110/66 83/84/66 108/6/66
f 90/11/67 94/117/67 68/98/67
f 94/117/68 93/116/68 69/100/68
f 93/116/69 92/114/69 70/101/69
f 92/114/70 89/27/70 66/29/70
f 120/143/67 123/144/67 116/131/67
f 123/144/68 122/145/68 117/132/68
f 122/145/69 121/146/69 118/133/69
f 121/146/70 119/93/70 114/94/70
f 140/96/55 144/136/55 126/147/55
f 144/136/56 143/135/56 127/148/56
f 143/135/57 142/134/57 128/149/57
f 142/134/58 139/15/58 125/89/58
f 146/92/59 150/139/59 131/150/59
f 150/139/60 149/138/60 132/151/60
f 149/138/61 148/137/61 133/152/61
f 148/137/62 145/1/62 130/153/62
f 152/9/63 156/142/63 136/154/63
f 156/142/64 155/141/64 137/155/64
f 155/141/65 154/140/65 138/156/65
f 154/140/66 151/4/66 135/90/66
f 107/126/3 90/11/3 65/97/3
