# Blender v2.82 (sub 7) OBJ File: 'GameScene.blend'
# www.blender.org
v -4.000000 0.000000 2.000000
v 4.000000 0.000000 2.000000
v -4.000000 0.000000 -2.000000
v 4.000000 0.000000 -2.000000
v -4.000000 2.500000 -2.000000
v -4.000000 2.500000 2.000000
v 4.000000 2.500000 2.000000
v 4.000000 2.500000 -2.000000
v -4.000000 2.500000 -6.000000
v 4.000000 2.500000 -6.000000
v -4.000000 5.500000 -2.000000
v -4.000000 5.500000 -1.000000
v 4.000000 5.500000 -1.000000
v 4.000000 5.500000 -2.000000
v -4.000000 5.500000 -6.000000
v 4.000000 5.500000 -6.000000
v -4.000000 0.501870 -2.000000
v -4.000000 2.257484 -2.000000
v 4.000000 2.257484 -2.000000
v 4.000000 0.501870 -2.000000
v 4.000000 0.501870 2.000000
v 4.000000 2.257484 2.000000
v -4.000000 2.257484 2.000000
v -4.000000 0.501870 2.000000
v -2.857143 0.000000 2.000000
v -1.714286 0.000000 2.000000
v -0.571429 0.000000 2.000000
v 0.571429 0.000000 2.000000
v 1.714286 0.000000 2.000000
v 2.857143 0.000000 2.000000
v -2.857143 2.500000 2.000000
v -1.714286 2.500000 2.000000
v -0.571429 2.500000 2.000000
v 0.571429 2.500000 2.000000
v 1.714286 2.500000 2.000000
v 2.857143 2.500000 2.000000
v 2.857143 0.501870 2.000000
v 1.714286 0.501870 2.000000
v 0.571429 0.501870 2.000000
v -0.571429 0.501870 2.000000
v -1.714286 0.501870 2.000000
v -2.857143 0.501870 2.000000
v 2.857143 2.257484 2.000000
v 1.714286 2.257484 2.000000
v 0.571429 2.257484 2.000000
v -0.571429 2.257484 2.000000
v -1.714286 2.257484 2.000000
v -2.857143 2.257484 2.000000
v 2.857143 0.501870 2.300000
v 1.714286 0.501870 2.300000
v 0.571429 0.501870 2.300000
v -0.571429 0.501870 2.300000
v -1.714286 0.501870 2.300000
v -2.857143 0.501870 2.300000
v 2.857143 2.257484 2.300000
v 1.714286 2.257484 2.300000
v 0.571429 2.257484 2.300000
v -0.571429 2.257484 2.300000
v -1.714286 2.257484 2.300000
v -2.857143 2.257484 2.300000
v 2.977143 0.414090 2.400000
v 1.594286 0.414090 2.400000
v 0.691429 0.414090 2.400000
v -0.691429 0.414090 2.400000
v -1.594286 0.414090 2.400000
v -2.977143 0.414090 2.400000
v 2.977143 2.345265 2.400000
v 1.594286 2.345265 2.400000
v 0.691429 2.345265 2.400000
v -0.691429 2.345265 2.400000
v -1.594286 2.345265 2.400000
v -2.977143 2.345265 2.400000
v -4.000000 2.000000 -0.500000
v -4.000000 0.000000 -0.500000
v -4.000000 0.501870 -0.500000
v -4.000000 2.000000 0.500000
v -4.000000 0.000000 0.500000
v -4.000000 0.501870 0.500000
v -4.000000 0.501870 -0.500000
v -4.000000 0.501870 0.500000
v 0.500000 4.500000 -6.000000
v 0.500000 2.500000 -6.000000
v -0.500000 2.500000 -6.000000
v -0.500000 4.500000 -6.000000
v -2.075729 0.000000 -2.000000
v -3.159100 0.000000 -2.000000
v -3.159100 0.501870 -2.000000
v -2.075730 0.501870 -2.000000
v -3.159100 2.042915 -2.000000
v -2.075730 2.042914 -2.000000
v -2.075729 0.000000 -2.316238
v -3.159100 0.000000 -2.316238
v -3.159100 2.042915 -2.316238
v -3.159100 0.501870 -2.316238
v -2.075730 0.501870 -2.316238
v -2.075730 2.042914 -2.316238
v -4.000000 0.000000 -2.499313
v -4.000000 0.501870 -2.499313
v -4.000000 2.300000 -2.499313
v -2.075729 0.000000 -2.499313
v -3.159100 0.000000 -2.499313
v -3.159100 0.501870 -2.499313
v -2.075730 0.501870 -2.499313
v -3.159100 2.042915 -2.499313
v -2.075730 2.042914 -2.499313
v -1.041985 2.079422 -2.499313
v -1.041985 0.000000 -2.499313
v -1.041985 2.300000 -2.499313
vt -0.263612 0.498991
vt 1.322243 0.450916
vt -0.263612 0.450916
vt -0.200403 0.001794
vt -0.426954 0.049869
vt -0.200403 0.049869
vt 0.007040 0.503562
vt 0.792727 0.455926
vt 0.007040 0.455926
vt 0.195059 0.500595
vt 0.995745 0.452050
vt 0.195059 0.452050
vt -0.605627 1.101109
vt -0.605627 0.500595
vt -0.416591 1.093468
vt 1.175827 1.093468
vt 0.280092 0.894416
vt 0.596305 1.092827
vt 0.792727 0.503562
vt 0.395231 1.101109
vt 0.995745 0.500595
vt 0.792727 1.092827
vt 1.578414 0.503562
vt 0.195059 0.100626
vt 0.495316 0.000166
vt 0.195059 0.000166
vt 0.495316 0.400509
vt 0.007040 0.111085
vt 0.792727 0.012507
vt 0.007040 0.012507
vt 0.792727 0.111085
vt -0.200403 0.397887
vt -0.426954 0.497374
vt -0.200403 0.497374
vt -0.426954 0.397887
vt 1.322243 0.102898
vt 1.322243 0.003411
vt 1.155550 0.003411
vt 1.158901 0.049869
vt 0.932350 0.397887
vt 1.158901 0.397887
vt -0.192590 0.397887
vt -0.192590 0.049869
vt -0.192590 0.397887
vt 0.705800 0.049869
vt 0.479249 0.397887
vt 0.705800 0.397887
vt 0.479249 0.397887
vt 0.252698 0.397887
vt 0.252698 0.049869
vt 0.026148 0.397887
vt 0.705800 0.397887
vt 0.932350 0.497374
vt 1.158901 0.497374
vt 0.705800 0.497374
vt 0.479249 0.497374
vt 0.252698 0.497374
vt 0.026148 0.497374
vt 1.158901 0.001794
vt 0.932350 0.049869
vt 0.932350 0.001794
vt 0.705800 0.001794
vt 0.479249 0.049869
vt 0.479249 0.001794
vt 0.252698 0.001794
vt 0.026148 0.049869
vt 0.026148 0.001794
vt -0.200403 0.022525
vt 0.026148 0.022525
vt -0.200403 0.022525
vt 0.479249 0.049869
vt 0.705800 0.049869
vt 0.026148 0.397887
vt 0.252698 0.397887
vt 0.932350 0.397887
vt 0.932350 0.049869
vt 0.252698 0.049869
vt 0.026148 0.049869
vt 0.705800 0.397887
vt 0.252698 0.049869
vt -0.200403 0.397887
vt -0.200403 0.049869
vt -0.200403 0.397887
vt 0.479249 0.397887
vt 0.479249 0.049869
vt 0.932350 0.049869
vt 0.252698 0.397887
vt -0.200403 0.049869
vt 0.026148 0.049869
vt 0.026148 0.397887
vt 0.645042 0.000000
vt 0.945101 0.100832
vt 0.644268 0.100759
vt 0.940791 0.102898
vt 0.940791 0.003411
vt -0.263612 0.102898
vt 0.940791 0.003411
vt 1.155550 0.102898
vt 1.155550 0.408382
vt 1.155550 0.408382
vt 1.155550 0.102898
vt 0.940791 0.408382
vt 0.940791 0.408382
vt 0.940791 0.102898
vt 1.322243 0.102898
vt 1.322243 0.450916
vt 1.155550 0.408382
vt 0.735870 0.450916
vt 0.735870 0.415619
vt 0.940791 0.408382
vt 0.735870 0.003411
vt 0.940791 0.003411
vt 0.940791 0.102898
vt 1.322243 0.498991
vt -0.426954 0.001794
vt 0.195059 1.101109
vt 0.280092 0.496311
vt -0.416591 0.496312
vt 1.175826 0.496311
vt 0.479144 0.894416
vt 0.479144 0.496311
vt 1.578414 1.092827
vt 0.495316 0.100626
vt 0.995547 0.100832
vt 0.695488 0.400509
vt 0.694714 0.100759
vt -0.192590 0.049869
vt 0.026148 0.022525
vt 0.705800 0.049869
vt 0.932350 0.397887
vt 0.945678 0.000000
vt -0.263612 0.003411
vt 1.155550 0.003411
vt 1.155550 0.102898
vt 1.155550 0.003411
vt 1.322243 0.003411
vn 0.0000 0.0000 1.0000
vn 0.0000 0.0000 -1.0000
vn -1.0000 0.0000 0.0000
vn 1.0000 0.0000 0.0000
vn 0.0000 1.0000 0.0000
vn 0.0000 -1.0000 0.0000
vn -0.6402 0.0000 0.7682
vn 0.0000 -0.7515 0.6597
vn 0.0000 0.7515 0.6597
vn 0.6402 0.0000 0.7682
s off
f 8/1/1 18/2/1 19/3/1
f 36/4/2 22/5/2 43/6/2
f 7/7/3 19/8/3 22/9/3
f 5/10/4 23/11/4 18/12/4
f 15/13/4 5/10/4 9/14/4
f 16/15/1 15/16/1 81/17/1
f 13/18/3 8/19/3 7/7/3
f 5/10/4 12/20/4 6/21/4
f 14/22/3 10/23/3 8/19/3
f 17/24/4 74/25/4 3/26/4
f 18/12/4 23/11/4 73/27/4
f 21/28/3 4/29/3 2/30/3
f 22/9/3 20/31/3 21/28/3
f 37/32/2 2/33/2 30/34/2
f 43/6/2 21/35/2 37/32/2
f 17/36/1 3/37/1 86/38/1
f 23/39/2 42/40/2 24/41/2
f 49/42/3 43/43/3 37/44/3
f 47/45/2 40/46/2 41/47/2
f 52/48/5 39/49/5 40/46/5
f 45/50/2 38/51/2 39/49/2
f 53/52/3 47/45/3 41/47/3
f 24/41/2 25/53/2 1/54/2
f 42/40/2 26/55/2 25/53/2
f 41/47/2 27/56/2 26/55/2
f 40/46/2 28/57/2 27/56/2
f 39/49/2 29/58/2 28/57/2
f 38/51/2 30/34/2 29/58/2
f 6/59/2 48/60/2 23/39/2
f 31/61/2 47/45/2 48/60/2
f 32/62/2 46/63/2 47/45/2
f 33/64/2 45/50/2 46/63/2
f 34/65/2 44/66/2 45/50/2
f 35/67/2 43/6/2 44/66/2
f 55/68/6 44/69/6 43/70/6
f 58/71/4 40/46/4 46/63/4
f 59/72/6 48/60/6 47/45/6
f 50/73/5 37/32/5 38/51/5
f 51/74/3 45/50/3 39/49/3
f 54/75/5 41/47/5 42/40/5
f 60/76/4 42/40/4 48/60/4
f 57/77/6 46/63/6 45/50/6
f 56/78/4 38/51/4 44/66/4
f 65/79/7 59/72/7 53/52/7
f 69/80/8 58/71/8 57/77/8
f 61/81/7 55/82/7 49/83/7
f 64/84/9 51/74/9 52/48/9
f 70/85/10 52/48/10 58/71/10
f 59/72/8 72/86/8 60/76/8
f 54/75/9 65/79/9 53/52/9
f 63/87/7 57/77/7 51/74/7
f 72/86/10 54/75/10 60/76/10
f 67/88/8 56/78/8 55/82/8
f 68/89/10 50/73/10 56/78/10
f 62/90/9 49/83/9 50/73/9
f 78/91/4 1/92/4 77/93/4
f 88/94/1 85/95/1 20/96/1
f 88/94/3 91/97/3 85/95/3
f 87/98/4 93/99/4 89/100/4
f 86/38/4 94/101/4 87/98/4
f 89/100/6 96/102/6 90/103/6
f 90/103/1 18/2/1 89/100/1
f 90/103/3 95/104/3 88/94/3
f 98/105/2 99/106/2 104/107/2
f 108/108/2 106/109/2 105/110/2
f 107/111/2 100/112/2 103/113/2
f 8/1/1 5/114/1 18/2/1
f 36/4/2 7/115/2 22/5/2
f 7/7/3 8/19/3 19/8/3
f 5/10/4 6/21/4 23/11/4
f 15/13/4 11/116/4 5/10/4
f 82/117/1 10/118/1 81/17/1
f 10/118/1 16/15/1 81/17/1
f 15/16/1 9/119/1 84/120/1
f 9/119/1 83/121/1 84/120/1
f 15/16/1 84/120/1 81/17/1
f 13/18/3 14/22/3 8/19/3
f 5/10/4 11/116/4 12/20/4
f 14/22/3 16/122/3 10/23/3
f 17/24/4 75/123/4 74/25/4
f 75/123/4 17/24/4 73/27/4
f 17/24/4 18/12/4 73/27/4
f 23/11/4 24/124/4 76/125/4
f 24/124/4 78/126/4 76/125/4
f 23/11/4 76/125/4 73/27/4
f 21/28/3 20/31/3 4/29/3
f 22/9/3 19/8/3 20/31/3
f 37/32/2 21/35/2 2/33/2
f 43/6/2 22/5/2 21/35/2
f 86/38/1 87/98/1 17/36/1
f 87/98/1 89/100/1 17/36/1
f 89/100/1 18/2/1 17/36/1
f 23/39/2 48/60/2 42/40/2
f 49/42/3 55/127/3 43/43/3
f 47/45/2 46/63/2 40/46/2
f 52/48/5 51/74/5 39/49/5
f 45/50/2 44/66/2 38/51/2
f 53/52/3 59/72/3 47/45/3
f 24/41/2 42/40/2 25/53/2
f 42/40/2 41/47/2 26/55/2
f 41/47/2 40/46/2 27/56/2
f 40/46/2 39/49/2 28/57/2
f 39/49/2 38/51/2 29/58/2
f 38/51/2 37/32/2 30/34/2
f 6/59/2 31/61/2 48/60/2
f 31/61/2 32/62/2 47/45/2
f 32/62/2 33/64/2 46/63/2
f 33/64/2 34/65/2 45/50/2
f 34/65/2 35/67/2 44/66/2
f 35/67/2 36/4/2 43/6/2
f 55/68/6 56/128/6 44/69/6
f 58/71/4 52/48/4 40/46/4
f 59/72/6 60/76/6 48/60/6
f 50/73/5 49/83/5 37/32/5
f 51/74/3 57/77/3 45/50/3
f 54/75/5 53/52/5 41/47/5
f 60/76/4 54/75/4 42/40/4
f 57/77/6 58/71/6 46/63/6
f 56/78/4 50/73/4 38/51/4
f 65/79/7 71/129/7 59/72/7
f 69/80/8 70/85/8 58/71/8
f 61/81/7 67/88/7 55/82/7
f 64/84/9 63/87/9 51/74/9
f 70/85/10 64/84/10 52/48/10
f 59/72/8 71/129/8 72/86/8
f 54/75/9 66/130/9 65/79/9
f 63/87/7 69/80/7 57/77/7
f 72/86/10 66/130/10 54/75/10
f 67/88/8 68/89/8 56/78/8
f 68/89/10 62/90/10 50/73/10
f 62/90/9 61/81/9 49/83/9
f 78/91/4 24/131/4 1/92/4
f 85/95/1 4/132/1 20/96/1
f 20/96/1 19/3/1 90/103/1
f 90/103/1 88/94/1 20/96/1
f 88/94/3 95/104/3 91/97/3
f 87/98/4 94/101/4 93/99/4
f 86/38/4 92/133/4 94/101/4
f 89/100/6 93/99/6 96/102/6
f 90/103/1 19/3/1 18/2/1
f 90/103/3 96/102/3 95/104/3
f 104/107/2 102/134/2 98/105/2
f 102/134/2 101/135/2 98/105/2
f 101/135/2 97/136/2 98/105/2
f 105/110/2 104/107/2 99/106/2
f 99/106/2 108/108/2 105/110/2
f 105/110/2 106/109/2 103/113/2
f 106/109/2 107/111/2 103/113/2
