# Blender v2.82 (sub 7) OBJ File: 'GameScene.blend'
# www.blender.org
v 0.676485 0.022539 -0.045867
v -0.676484 0.022539 -0.045867
v 0.676485 -0.069852 -0.170104
v -0.676484 -0.069852 -0.170104
v 0.676485 0.022539 -0.222109
v 0.676485 -0.021111 -0.265759
v 0.676485 0.009754 -0.252975
v -0.676484 -0.021111 -0.265759
v -0.676484 0.022539 -0.222109
v -0.676484 0.009754 -0.252975
v 0.676485 -0.056600 -0.265759
v 0.676485 -0.069852 -0.252507
v -0.676484 -0.069852 -0.252507
v -0.676484 -0.056600 -0.265759
v 0.549386 0.056473 -0.045867
v -0.549386 0.056473 -0.045867
v 0.549386 0.056473 0.043177
v -0.549386 0.056473 0.043177
v -0.549386 1.736503 0.043177
v 0.549386 1.736503 0.043177
v -0.549386 1.736503 -0.045867
v 0.549386 1.736503 -0.045867
v 0.676485 1.862520 -0.045867
v -0.676484 1.862520 -0.045867
v 0.013954 0.051715 -0.033341
v -0.013954 0.051715 -0.033341
v 0.013954 0.051715 0.030651
v -0.013954 0.051715 0.030651
v 0.013954 1.746423 -0.033341
v -0.013954 1.746423 -0.033341
v 0.013954 1.746423 0.030651
v -0.013954 1.746423 0.030651
v -0.566128 1.157929 -0.028640
v -0.566128 1.185838 -0.028640
v -0.566128 1.157929 0.025951
v -0.566128 1.185838 0.025951
v 0.566128 1.157929 -0.028640
v 0.566128 1.185838 -0.028640
v 0.566128 1.157929 0.025951
v 0.566128 1.185838 0.025951
v -0.566128 0.579232 -0.028640
v -0.566128 0.607140 -0.028640
v -0.566128 0.579232 0.025951
v -0.566128 0.607140 0.025951
v 0.566128 0.579231 -0.028640
v 0.566128 0.607140 -0.028640
v 0.566128 0.579231 0.025951
v 0.566128 0.607140 0.025951
vt 0.000000 0.000000
vt 0.000000 0.000000
vt 0.000000 0.000000
vt 0.000000 0.000000
vt 0.000000 0.000000
vt 0.000000 0.000000
vt 0.000000 0.000000
vt 0.000000 0.000000
vt 0.000000 0.000000
vt 0.000000 0.000000
vt 0.000000 0.000000
vt 0.000000 0.000000
vt 0.000000 0.000000
vt 0.000000 0.000000
vt 0.000000 0.000000
vt 0.000000 0.000000
vt 0.000000 0.000000
vt 0.000000 0.000000
vt 0.000000 0.000000
vt 0.000000 0.000000
vt 0.000000 0.000000
vt 0.000000 0.000000
vt 0.000000 0.000000
vt 0.000000 0.000000
vt 0.000000 0.000000
vt 0.000000 0.000000
vt 0.000000 0.000000
vt 0.000000 0.000000
vt 0.000000 0.000000
vt 0.000000 0.000000
vt 0.000000 0.000000
vt 0.000000 0.000000
vt 0.000000 0.000000
vt 0.000000 0.000000
vt 0.000000 0.000000
vt 0.000000 0.000000
vt 0.000000 0.000000
vt 0.000000 0.000000
vt 0.000000 0.000000
vt 0.000000 0.000000
vt 0.000000 0.000000
vt 0.000000 0.000000
vt 0.000000 0.000000
vt 0.000000 0.000000
vt 0.000000 0.000000
vt 0.000000 0.000000
vt 0.000000 0.000000
vt 0.000000 0.000000
vn -0.0000 1.0000 0.0000
vn -0.0000 0.9239 -0.3827
vn -0.0000 0.3827 -0.9239
vn 0.0000 -1.0000 0.0000
vn 0.0000 -0.7071 -0.7071
vn -0.0000 0.0000 -1.0000
vn -1.0000 -0.0000 0.0000
vn 1.0000 -0.0000 0.0000
s off
f 2/1/1 5/2/1 9/3/1
f 7/4/2 9/3/2 5/2/2
f 6/5/3 10/6/3 7/4/3
f 3/7/4 13/8/4 12/9/4
f 12/9/5 14/10/5 11/11/5
f 6/5/6 14/10/6 8/12/6
f 4/13/7 8/12/7 13/8/7
f 3/7/8 6/5/8 5/2/8
f 2/1/6 15/14/6 1/15/6
f 18/16/1 15/14/1 16/17/1
f 20/18/7 15/14/7 17/19/7
f 21/20/8 18/16/8 16/17/8
f 21/20/4 20/18/4 19/21/4
f 2/1/6 21/20/6 16/17/6
f 1/15/6 22/22/6 23/23/6
f 21/20/6 23/23/6 22/22/6
f 28/24/7 30/25/7 26/26/7
f 26/26/6 29/27/6 25/28/6
f 25/28/8 31/29/8 27/30/8
f 28/24/6 31/29/6 27/30/6
f 36/31/1 38/32/1 34/33/1
f 33/34/6 38/32/6 37/35/6
f 33/34/4 39/36/4 35/37/4
f 35/37/6 40/38/6 39/36/6
f 44/39/1 46/40/1 42/41/1
f 41/42/6 46/40/6 45/43/6
f 41/42/4 47/44/4 43/45/4
f 43/45/6 48/46/6 47/44/6
f 2/1/1 1/15/1 5/2/1
f 7/4/2 10/6/2 9/3/2
f 6/5/3 8/12/3 10/6/3
f 3/7/4 4/13/4 13/8/4
f 12/9/5 13/8/5 14/10/5
f 6/5/6 11/11/6 14/10/6
f 2/1/7 9/3/7 4/13/7
f 9/3/7 10/6/7 8/12/7
f 4/13/7 9/3/7 8/12/7
f 8/12/7 14/10/7 13/8/7
f 6/5/8 7/4/8 5/2/8
f 5/2/8 1/15/8 3/7/8
f 3/7/8 12/9/8 6/5/8
f 12/9/8 11/11/8 6/5/8
f 2/1/6 16/17/6 15/14/6
f 18/16/1 17/19/1 15/14/1
f 20/18/7 22/22/7 15/14/7
f 21/20/8 19/21/8 18/16/8
f 21/20/4 22/22/4 20/18/4
f 2/1/6 24/47/6 21/20/6
f 1/15/6 15/14/6 22/22/6
f 21/20/6 24/47/6 23/23/6
f 28/24/7 32/48/7 30/25/7
f 26/26/6 30/25/6 29/27/6
f 25/28/8 29/27/8 31/29/8
f 28/24/6 32/48/6 31/29/6
f 36/31/1 40/38/1 38/32/1
f 33/34/6 34/33/6 38/32/6
f 33/34/4 37/35/4 39/36/4
f 35/37/6 36/31/6 40/38/6
f 44/39/1 48/46/1 46/40/1
f 41/42/6 42/41/6 46/40/6
f 41/42/4 45/43/4 47/44/4
f 43/45/6 44/39/6 48/46/6
